# Blender 4.0.2
# www.blender.org
mtllib palm.mtl
o defaultMaterial
v -0.024186 0.438525 0.060022
v -0.017521 0.471828 0.078847
v 0.012193 0.468540 0.101500
v 0.027280 0.432829 0.099259
v -0.057099 0.353025 0.113514
v -0.047036 0.369934 0.080038
v 0.004429 0.364238 0.119274
v -0.027385 0.349736 0.136168
v -0.034989 0.401229 0.060458
v 0.024438 0.394652 0.105764
v -0.017521 0.471828 0.078847
v -0.016781 0.492215 0.111888
v 0.012193 0.468540 0.101500
v -0.062482 0.355033 0.151919
v -0.057099 0.353025 0.113514
v -0.027385 0.349736 0.136168
v 0.000409 0.383632 0.181148
v -0.029707 0.360934 0.171890
v 0.023259 0.452224 0.161132
v 0.019796 0.417047 0.177210
v 0.009871 0.479737 0.137223
v -0.029707 0.360934 0.171890
v 0.009871 0.479737 0.137223
v -0.055077 0.408723 0.203784
v -0.061742 0.375420 0.184960
v -0.032227 0.477314 0.183769
v -0.044274 0.446019 0.203349
v -0.022163 0.494223 0.150292
v -0.061742 0.375420 0.184960
v -0.022163 0.494223 0.150292
v -0.083692 0.483010 0.144532
v -0.103701 0.452595 0.158042
v -0.051877 0.497511 0.127639
v -0.091455 0.378708 0.162306
v -0.106542 0.414418 0.164548
v -0.051877 0.497511 0.127639
v -0.091455 0.378708 0.162306
v -0.049556 0.486314 0.091916
v -0.089134 0.367510 0.126584
v -0.099058 0.430201 0.086597
v -0.102522 0.395024 0.102674
v -0.049556 0.486314 0.091916
v -0.079672 0.463615 0.082659
v -0.089134 0.367510 0.126584
v -0.102522 0.395024 0.102674
v -0.099058 0.430201 0.086597
v -0.079672 0.463615 0.082659
v -0.049556 0.486314 0.091916
v -0.089134 0.367510 0.126584
v 0.096776 0.409111 -0.005129
v 0.103441 0.442414 0.013696
v 0.133154 0.439126 0.036349
v 0.148241 0.403415 0.034108
v 0.063863 0.323611 0.048363
v 0.073926 0.340520 0.014886
v 0.125391 0.334824 0.054123
v 0.093576 0.320323 0.071017
v 0.085973 0.371815 -0.004693
v 0.145400 0.365239 0.040613
v 0.103441 0.442414 0.013696
v 0.104181 0.462801 0.046737
v 0.133154 0.439126 0.036349
v 0.058480 0.325619 0.086768
v 0.063863 0.323611 0.048363
v 0.093576 0.320323 0.071017
v 0.121370 0.354219 0.115996
v 0.091255 0.331520 0.106739
v 0.144221 0.422810 0.095981
v 0.140757 0.387633 0.112059
v 0.130833 0.450323 0.072072
v 0.091255 0.331520 0.106739
v 0.130833 0.450323 0.072072
v 0.065885 0.379309 0.138633
v 0.059220 0.346006 0.119809
v 0.088735 0.447900 0.118618
v 0.076688 0.416605 0.138197
v 0.098798 0.464809 0.085141
v 0.059220 0.346006 0.119809
v 0.098798 0.464809 0.085141
v 0.037270 0.453596 0.079381
v 0.017261 0.423182 0.092891
v 0.069085 0.468098 0.062488
v 0.029507 0.349294 0.097155
v 0.014419 0.385005 0.099397
v 0.069085 0.468098 0.062488
v 0.029507 0.349294 0.097155
v 0.071406 0.456900 0.026765
v 0.031828 0.338097 0.061433
v 0.021903 0.400787 0.021446
v 0.018440 0.365610 0.037523
v 0.071406 0.456900 0.026765
v 0.041290 0.434201 0.017508
v 0.031828 0.338097 0.061433
v 0.018440 0.365610 0.037523
v 0.021903 0.400787 0.021446
v 0.041290 0.434201 0.017508
v 0.071406 0.456900 0.026765
v 0.031828 0.338097 0.061433
vn 0.8975 0.0856 -0.4327
vn 0.1970 0.1631 -0.9667
vn 0.2872 0.5917 -0.7533
vn 0.7297 0.5427 -0.4159
vn 0.2244 -0.9741 0.0267
vn -0.2181 -0.9252 -0.3106
vn -0.0876 -0.6911 -0.7175
vn 0.6129 -0.7686 -0.1835
vn 0.8541 -0.3862 -0.3484
vn 0.0619 -0.2985 -0.9524
vn 0.3046 0.9143 -0.2668
vn -0.3046 -0.9143 0.2668
vn 0.1898 -0.8074 0.5587
vn 0.5582 -0.5046 0.6586
vn 0.7922 -0.0877 0.6040
vn 0.8427 0.3496 0.4094
vn 0.6951 0.7094 0.1160
vn -0.2872 -0.5917 0.7533
vn -0.1970 -0.1631 0.9667
vn -0.0619 0.2985 0.9524
vn 0.0876 0.6911 0.7175
vn 0.2181 0.9252 0.3106
vn -0.8541 0.3862 0.3484
vn -0.6129 0.7686 0.1835
vn -0.2244 0.9741 -0.0267
vn -0.7297 -0.5427 0.4159
vn -0.8974 -0.0856 0.4327
vn -0.1898 0.8074 -0.5587
vn -0.6951 -0.7095 -0.1160
vn -0.8427 -0.3496 -0.4094
vn -0.7922 0.0876 -0.6040
vn -0.5582 0.5046 -0.6586
vn -0.6951 -0.7094 -0.1160
vn -0.7922 0.0877 -0.6039
vn -0.5581 0.5046 -0.6587
vn 0.2243 -0.9741 0.0267
vn 0.6952 0.7094 0.1160
vn -0.8975 -0.0856 0.4327
vn -0.2243 0.9741 -0.0267
vn -0.8427 -0.3495 -0.4094
vn -0.5582 0.5046 -0.6587
vn -0.6952 -0.7094 -0.1160
vt 0.356101 0.611070
vt 0.360452 0.735769
vt 0.467955 0.726264
vt 0.453671 0.612972
vt 0.135977 0.598931
vt 0.124546 0.700295
vt 0.208329 0.728598
vt 0.223385 0.611782
vt 0.288903 0.613002
vt 0.282074 0.738045
vt 0.810405 0.460600
vt 0.735674 0.503746
vt 0.810405 0.546891
vt 0.735674 0.834582
vt 0.735674 0.748291
vt 0.660944 0.791436
vt 0.135147 0.494876
vt 0.226778 0.501349
vt 0.290909 0.500000
vt 0.355039 0.498651
vt 0.735674 0.590037
vt 0.660944 0.877727
vt 0.446671 0.505123
vt 0.128147 0.387028
vt 0.225717 0.388930
vt 0.292915 0.386998
vt 0.358433 0.388218
vt 0.660944 0.546891
vt 0.735674 0.920873
vt 0.445841 0.401069
vt 0.299743 0.261955
vt 0.373488 0.271402
vt 0.660944 0.460600
vt 0.810405 0.877727
vt 0.221365 0.264231
vt 0.457272 0.299705
vt 0.113862 0.273736
vt 0.735674 0.417454
vt 0.810405 0.791436
vt 0.197253 0.086500
vt 0.321722 0.079127
vt 0.427532 0.126255
vt 0.502690 0.204929
vt 0.079128 0.154994
vt 0.154285 0.873745
vt 0.260095 0.920873
vt 0.384564 0.913500
vt 0.502690 0.845006
vt 0.079127 0.795070
s 1
usemtl coconut
f 4/1/1 1/2/2 2/3/3
f 2/3/3 3/4/4 4/1/1
f 8/5/5 5/6/6 6/7/7
f 6/7/7 7/8/8 8/5/5
f 10/9/9 9/10/10 1/2/2
f 1/2/2 4/1/1 10/9/9
f 11/11/3 12/12/11 13/13/4
f 14/14/12 15/15/6 16/16/5
f 7/8/8 6/7/7 9/10/10
f 9/10/10 10/9/9 7/8/8
f 18/17/13 8/5/5 7/8/8
f 7/8/8 17/18/14 18/17/13
f 20/19/15 10/9/9 4/1/1
f 4/1/1 19/20/16 20/19/15
f 13/13/4 12/12/11 21/21/17
f 14/14/12 16/16/5 22/22/13
f 17/18/14 7/8/8 10/9/9
f 10/9/9 20/19/15 17/18/14
f 19/20/16 4/1/1 3/4/4
f 3/4/4 23/23/17 19/20/16
f 25/24/18 18/17/13 17/18/14
f 17/18/14 24/25/19 25/24/18
f 27/26/20 20/19/15 19/20/16
f 19/20/16 26/27/21 27/26/20
f 21/21/17 12/12/11 28/28/22
f 14/14/12 22/22/13 29/29/18
f 24/25/19 17/18/14 20/19/15
f 20/19/15 27/26/20 24/25/19
f 26/27/21 19/20/16 23/23/17
f 23/23/17 30/30/22 26/27/21
f 32/31/23 27/26/20 26/27/21
f 26/27/21 31/32/24 32/31/23
f 28/28/22 12/12/11 33/33/25
f 14/14/12 29/29/18 34/34/26
f 35/35/27 24/25/19 27/26/20
f 27/26/20 32/31/23 35/35/27
f 31/32/24 26/27/21 30/30/22
f 30/30/22 36/36/25 31/32/24
f 37/37/26 25/24/18 24/25/19
f 24/25/19 35/35/27 37/37/26
f 33/33/25 12/12/11 38/38/28
f 14/14/12 34/34/26 39/39/29
f 41/40/30 35/35/27 32/31/23
f 32/31/23 40/41/31 41/40/30
f 43/42/32 31/32/24 36/36/25
f 36/36/25 42/43/28 43/42/32
f 44/44/33 37/37/26 35/35/27
f 35/35/27 41/40/30 44/44/33
f 40/41/31 32/31/23 31/32/24
f 31/32/24 43/42/32 40/41/31
f 14/14/12 39/39/29 15/15/6
f 6/7/7 45/45/30 46/46/34
f 46/46/34 9/10/10 6/7/7
f 1/2/2 47/47/35 48/48/28
f 48/48/28 2/3/3 1/2/2
f 5/6/6 49/49/33 45/45/30
f 45/45/30 6/7/7 5/6/6
f 9/10/10 46/46/34 47/47/35
f 47/47/35 1/2/2 9/10/10
f 38/38/28 12/12/11 11/11/3
f 53/1/1 50/2/2 51/3/3
f 51/3/3 52/4/4 53/1/1
f 57/5/5 54/6/6 55/7/7
f 55/7/7 56/8/8 57/5/5
f 59/9/9 58/10/10 50/2/2
f 50/2/2 53/1/1 59/9/9
f 60/11/3 61/12/11 62/13/4
f 63/14/12 64/15/6 65/16/36
f 56/8/8 55/7/7 58/10/10
f 58/10/10 59/9/9 56/8/8
f 67/17/13 57/5/5 56/8/8
f 56/8/8 66/18/14 67/17/13
f 69/19/15 59/9/9 53/1/1
f 53/1/1 68/20/16 69/19/15
f 62/13/4 61/12/11 70/21/17
f 63/14/12 65/16/36 71/22/13
f 66/18/14 56/8/8 59/9/9
f 59/9/9 69/19/15 66/18/14
f 68/20/16 53/1/1 52/4/4
f 52/4/4 72/23/37 68/20/16
f 74/24/18 67/17/13 66/18/14
f 66/18/14 73/25/19 74/24/18
f 76/26/20 69/19/15 68/20/16
f 68/20/16 75/27/21 76/26/20
f 70/21/17 61/12/11 77/28/22
f 63/14/12 71/22/13 78/29/18
f 73/25/19 66/18/14 69/19/15
f 69/19/15 76/26/20 73/25/19
f 75/27/21 68/20/16 72/23/37
f 72/23/37 79/30/22 75/27/21
f 81/31/23 76/26/20 75/27/21
f 75/27/21 80/32/24 81/31/23
f 77/28/22 61/12/11 82/33/25
f 63/14/12 78/29/18 83/34/26
f 84/35/38 73/25/19 76/26/20
f 76/26/20 81/31/23 84/35/38
f 80/32/24 75/27/21 79/30/22
f 79/30/22 85/36/39 80/32/24
f 86/37/26 74/24/18 73/25/19
f 73/25/19 84/35/38 86/37/26
f 82/33/25 61/12/11 87/38/28
f 63/14/12 83/34/26 88/39/33
f 90/40/40 84/35/38 81/31/23
f 81/31/23 89/41/31 90/40/40
f 92/42/32 80/32/24 85/36/39
f 85/36/39 91/43/28 92/42/32
f 93/44/29 86/37/26 84/35/38
f 84/35/38 90/40/40 93/44/29
f 89/41/31 81/31/23 80/32/24
f 80/32/24 92/42/32 89/41/31
f 63/14/12 88/39/33 64/15/6
f 55/7/7 94/45/30 95/46/34
f 95/46/34 58/10/10 55/7/7
f 50/2/2 96/47/41 97/48/28
f 97/48/28 51/3/3 50/2/2
f 54/6/6 98/49/42 94/45/30
f 94/45/30 55/7/7 54/6/6
f 58/10/10 95/46/34 96/47/41
f 96/47/41 50/2/2 58/10/10
f 87/38/28 61/12/11 60/11/3
o defaultMaterial.001
v -0.391919 -0.761867 0.334537
v -0.381190 -0.749844 0.351749
v -0.361232 -0.757341 0.351108
v -0.362927 -0.772726 0.333497
v -0.312125 -0.777700 0.361582
v -0.326163 -0.760705 0.370140
v -0.318592 -0.755346 0.383111
v -0.301281 -0.770054 0.381093
v -0.323545 -0.749318 0.408588
v -0.308361 -0.761205 0.417560
v -0.337352 -0.741662 0.428747
v -0.328301 -0.750002 0.446347
v -0.356605 -0.733908 0.437812
v -0.356200 -0.738704 0.459286
v -0.377091 -0.728011 0.434632
v -0.385934 -0.730145 0.454671
v -0.394115 -0.725323 0.419937
v -0.410689 -0.726286 0.433560
v -0.403582 -0.726279 0.396166
v -0.424531 -0.727766 0.399530
v -0.424531 -0.727766 0.399530
v -0.403582 -0.726279 0.396166
v -0.403569 -0.730886 0.369922
v -0.424618 -0.734552 0.361950
v -0.396611 -0.740427 0.359206
v -0.414375 -0.748267 0.345712
v 0.057820 0.434416 -0.022872
v 0.041854 0.437831 -0.029398
v 0.025369 0.443757 -0.027909
v 0.012139 0.450838 -0.018746
v 0.005195 0.457452 -0.004009
v 0.006130 0.462083 0.012926
v 0.014727 0.463670 0.028180
v 0.029018 0.461850 0.038259
v 0.045729 0.457039 0.040852
v 0.061032 0.450341 0.035367
v 0.071420 0.443289 0.023060
v 0.074515 0.437498 0.006750
v 0.069606 0.434296 -0.009827
v -0.341410 -0.761295 0.357923
v -0.334180 -0.778487 0.343498
v -0.401589 -0.897293 0.351576
v -0.382018 -0.901479 0.359575
v -0.367569 -0.901626 0.375567
v -0.361552 -0.897700 0.395888
v -0.365345 -0.890602 0.415882
v -0.378080 -0.881957 0.430969
v -0.396839 -0.873746 0.437693
v -0.417325 -0.867849 0.434514
v -0.434844 -0.865618 0.422159
v -0.445383 -0.867564 0.403459
v -0.446528 -0.873240 0.382699
v -0.438017 -0.881347 0.364633
v -0.421799 -0.890028 0.353401
v -0.041086 0.393224 -0.010900
v 0.012139 0.450838 -0.018746
v 0.025369 0.443757 -0.027909
v -0.013637 0.378286 -0.026895
v -0.054759 0.407145 0.013684
v 0.005195 0.457452 -0.004009
v -0.053532 0.416976 0.054378
v 0.006130 0.462083 0.012926
v -0.036052 0.420370 0.091150
v 0.014727 0.463670 0.028180
v 0.006130 0.462083 0.012926
v -0.053532 0.416976 0.054378
v -0.006164 0.416541 0.114543
v 0.029018 0.461850 0.038259
v 0.029158 0.406374 0.120025
v 0.045729 0.457039 0.040852
v 0.061822 0.392197 0.106340
v 0.061032 0.450341 0.035367
v 0.084471 0.377251 0.075797
v 0.071420 0.443289 0.023060
v 0.091759 0.364970 0.036424
v 0.074515 0.437498 0.006750
v 0.080382 0.358259 0.007953
v 0.069606 0.434296 -0.009827
v 0.054954 0.358543 -0.016250
v 0.057820 0.434416 -0.022872
v 0.021047 0.365769 -0.028984
v 0.041854 0.437831 -0.029398
v -0.034294 0.313528 0.024798
v -0.005205 0.303000 0.023749
v -0.057911 0.168492 0.113874
v -0.078006 0.175697 0.114850
v -0.089732 0.162343 0.101592
v -0.060564 0.151882 0.100162
v -0.120051 -0.008392 0.186191
v -0.140157 -0.001146 0.187313
v -0.151802 -0.014733 0.173100
v -0.122614 -0.025237 0.171463
v -0.185627 -0.201946 0.249731
v -0.205798 -0.194869 0.250957
v -0.218547 -0.212229 0.236864
v -0.189265 -0.222481 0.235086
v -0.250382 -0.399612 0.300351
v -0.270605 -0.392718 0.301576
v -0.282902 -0.409155 0.286281
v -0.253576 -0.419233 0.284541
v -0.310892 -0.590891 0.335467
v -0.330864 -0.583317 0.336336
v -0.344294 -0.603982 0.320501
v -0.315308 -0.614963 0.319275
v -0.361232 -0.757341 0.351108
v -0.381190 -0.749844 0.351749
v -0.057059 0.326071 0.036002
v -0.093860 0.184186 0.123379
v -0.112746 0.174675 0.114011
v -0.156045 0.007475 0.196306
v -0.174879 -0.002265 0.186180
v -0.221892 -0.186787 0.260279
v -0.241925 -0.200563 0.250394
v -0.286867 -0.385220 0.310897
v -0.306419 -0.398041 0.299688
v -0.346326 -0.573653 0.344521
v -0.366730 -0.589993 0.332270
v -0.396611 -0.740427 0.359206
v -0.067903 0.337729 0.052295
v -0.101662 0.191919 0.136180
v -0.124075 0.185921 0.132670
v -0.163913 0.015465 0.210011
v -0.186331 0.009247 0.206123
v -0.230162 -0.179846 0.274624
v -0.253963 -0.190612 0.271215
v -0.295463 -0.379416 0.325240
v -0.318730 -0.389166 0.320270
v -0.353365 -0.563631 0.356654
v -0.376934 -0.575520 0.349663
v -0.403569 -0.730886 0.369922
v -0.067367 0.346050 0.089834
v -0.101046 0.197874 0.160868
v -0.123177 0.194549 0.168444
v -0.163248 0.021229 0.234024
v -0.185341 0.017676 0.240939
v -0.229197 -0.173299 0.298160
v -0.252536 -0.181018 0.305376
v -0.294255 -0.372021 0.348777
v -0.317100 -0.378769 0.354609
v -0.353318 -0.559383 0.381841
v -0.376875 -0.569300 0.386382
v -0.403582 -0.726279 0.396166
v -0.053111 0.348948 0.123825
v -0.067367 0.346050 0.089834
v -0.101046 0.197874 0.160868
v -0.090996 0.200078 0.183200
v -0.108587 0.197732 0.200803
v -0.123177 0.194549 0.168444
v -0.163248 0.021229 0.234024
v -0.153152 0.023255 0.255733
v -0.170666 0.020676 0.272411
v -0.185341 0.017676 0.240939
v -0.229197 -0.173299 0.298160
v -0.218824 -0.170549 0.319426
v -0.237457 -0.176941 0.336243
v -0.252536 -0.181018 0.305376
v -0.294255 -0.372021 0.348777
v -0.283657 -0.368487 0.370046
v -0.301832 -0.373950 0.385641
v -0.317100 -0.378769 0.354609
v -0.353318 -0.559383 0.381841
v -0.343795 -0.558759 0.404634
v -0.363061 -0.568343 0.419614
v -0.376875 -0.569300 0.386382
v -0.403582 -0.726279 0.396166
v -0.394115 -0.725323 0.419937
v -0.028164 0.345744 0.144919
v -0.073703 0.197966 0.197231
v -0.083485 0.194659 0.221143
v -0.135838 0.021061 0.269476
v -0.145525 0.017519 0.292342
v -0.201382 -0.172409 0.332966
v -0.212129 -0.179601 0.355895
v -0.266111 -0.369985 0.383586
v -0.276418 -0.376267 0.405369
v -0.326744 -0.561600 0.418878
v -0.338318 -0.572443 0.440357
v -0.377091 -0.728011 0.434632
v 0.001569 0.337186 0.149534
v -0.053218 0.192069 0.200411
v -0.053751 0.186100 0.225758
v -0.115352 0.015164 0.272656
v -0.115792 0.008960 0.296957
v -0.180897 -0.178306 0.336145
v -0.182396 -0.188160 0.360510
v -0.245625 -0.375882 0.386765
v -0.246685 -0.384825 0.409984
v -0.306259 -0.567497 0.422058
v -0.308584 -0.581002 0.444972
v -0.356605 -0.733908 0.437812
v 0.029277 0.325233 0.136612
v -0.034233 0.183739 0.192010
v -0.026198 0.174016 0.213590
v -0.096389 0.006916 0.264543
v -0.088277 -0.003039 0.285198
v -0.162061 -0.186889 0.328236
v -0.155068 -0.200656 0.349030
v -0.226893 -0.384826 0.378856
v -0.219444 -0.397665 0.398429
v -0.287031 -0.575098 0.413444
v -0.280673 -0.592058 0.432401
v -0.337352 -0.741662 0.428747
v 0.048802 0.312610 0.107864
v -0.021008 0.174836 0.173290
v -0.007008 0.161109 0.186474
v -0.083210 -0.001810 0.246447
v -0.069172 -0.015763 0.258969
v -0.149159 -0.196338 0.310582
v -0.136367 -0.214457 0.323406
v -0.214217 -0.395060 0.361200
v -0.200931 -0.412208 0.372640
v -0.273281 -0.582422 0.394263
v -0.260706 -0.602739 0.404412
v -0.323545 -0.749318 0.408588
v 0.055434 0.302227 0.071438
v -0.016686 0.167459 0.149369
v -0.000738 0.150419 0.151813
v -0.078937 -0.008996 0.223200
v -0.062994 -0.026256 0.225266
v -0.145185 -0.204306 0.287813
v -0.130626 -0.226114 0.290358
v -0.210487 -0.403876 0.338429
v -0.195393 -0.424668 0.339413
v -0.268389 -0.588091 0.369843
v -0.253597 -0.611023 0.368806
v -0.318592 -0.755346 0.383111
v 0.045191 0.296638 0.051872
v -0.023412 0.163907 0.134313
v -0.010495 0.145242 0.129881
v -0.085597 -0.012804 0.207240
v -0.072628 -0.031698 0.202050
v -0.151444 -0.207065 0.271213
v -0.139675 -0.229995 0.266264
v -0.216419 -0.405499 0.321831
v -0.204169 -0.427473 0.315558
v -0.275878 -0.593931 0.355455
v -0.264480 -0.619426 0.348140
v -0.326163 -0.760705 0.370140
v 0.023444 0.296908 0.033759
v -0.038226 0.164246 0.121025
v -0.031993 0.145723 0.110554
v -0.100377 -0.012597 0.193487
v -0.094063 -0.031353 0.182062
v -0.166017 -0.206319 0.257131
v -0.160809 -0.228849 0.245826
v -0.230825 -0.404169 0.307751
v -0.225163 -0.425774 0.295243
v -0.291083 -0.594768 0.342510
v -0.286555 -0.620602 0.329462
v -0.341410 -0.761295 0.357923
v -0.310892 -0.590891 0.335467
v -0.291083 -0.594768 0.342510
v -0.275878 -0.593931 0.355455
v -0.268389 -0.588091 0.369843
v -0.273281 -0.582422 0.394263
v -0.287031 -0.575098 0.413444
v -0.306259 -0.567497 0.422058
v -0.326744 -0.561600 0.418878
v -0.343795 -0.558759 0.404634
v -0.353318 -0.559383 0.381841
v -0.353318 -0.559383 0.381841
v -0.353365 -0.563631 0.356654
v -0.346326 -0.573653 0.344521
v -0.330864 -0.583317 0.336336
v -0.250382 -0.399612 0.300351
v -0.230825 -0.404169 0.307751
v -0.216419 -0.405499 0.321831
v -0.210487 -0.403876 0.338429
v -0.214217 -0.395060 0.361200
v -0.226893 -0.384826 0.378856
v -0.245625 -0.375882 0.386765
v -0.266111 -0.369985 0.383586
v -0.283657 -0.368487 0.370046
v -0.294255 -0.372021 0.348777
v -0.294255 -0.372021 0.348777
v -0.295463 -0.379416 0.325240
v -0.286867 -0.385220 0.310897
v -0.270605 -0.392718 0.301576
v -0.185627 -0.201946 0.249731
v -0.166017 -0.206319 0.257131
v -0.151444 -0.207065 0.271213
v -0.145185 -0.204306 0.287813
v -0.149159 -0.196338 0.310582
v -0.162061 -0.186889 0.328236
v -0.180897 -0.178306 0.336145
v -0.201382 -0.172409 0.332966
v -0.218824 -0.170549 0.319426
v -0.229197 -0.173299 0.298160
v -0.229197 -0.173299 0.298160
v -0.230162 -0.179846 0.274624
v -0.221892 -0.186787 0.260279
v -0.205798 -0.194869 0.250957
v -0.120051 -0.008392 0.186191
v -0.100377 -0.012597 0.193487
v -0.085597 -0.012804 0.207240
v -0.078937 -0.008996 0.223200
v -0.083210 -0.001810 0.246447
v -0.096389 0.006916 0.264543
v -0.115352 0.015164 0.272656
v -0.135838 0.021061 0.269476
v -0.153152 0.023255 0.255733
v -0.163248 0.021229 0.234024
v -0.163248 0.021229 0.234024
v -0.163913 0.015465 0.210011
v -0.156045 0.007475 0.196306
v -0.140157 -0.001146 0.187313
v -0.057911 0.168492 0.113874
v -0.038226 0.164246 0.121025
v -0.023412 0.163907 0.134313
v -0.016686 0.167459 0.149369
v -0.021008 0.174836 0.173290
v -0.034233 0.183739 0.192010
v -0.053218 0.192069 0.200411
v -0.073703 0.197966 0.197231
v -0.090996 0.200078 0.183200
v -0.101046 0.197874 0.160868
v -0.101046 0.197874 0.160868
v -0.101662 0.191919 0.136180
v -0.093860 0.184186 0.123379
v -0.078006 0.175697 0.114850
v -0.003784 0.315625 0.038010
v 0.015957 0.311430 0.044895
v 0.030948 0.311252 0.057336
v 0.038021 0.315116 0.070742
v 0.033440 0.322260 0.095894
v 0.019977 0.330946 0.115752
v 0.000881 0.339177 0.124678
v -0.019604 0.345074 0.121499
v -0.036787 0.347286 0.106942
v -0.046598 0.345298 0.083472
v -0.046598 0.345298 0.083472
v -0.046955 0.339577 0.057553
v -0.039500 0.331530 0.046402
v -0.023824 0.322880 0.038720
v -0.382018 -0.901479 0.359575
v -0.367569 -0.901626 0.375567
v -0.401589 -0.897293 0.351576
v -0.438017 -0.881347 0.364633
v -0.421799 -0.890028 0.353401
v -0.446528 -0.873240 0.382699
v -0.445383 -0.867564 0.403459
v -0.434844 -0.865618 0.422159
v -0.445383 -0.867564 0.403459
v -0.417325 -0.867849 0.434514
v -0.396839 -0.873746 0.437693
v -0.378080 -0.881957 0.430969
v -0.365345 -0.890602 0.415882
v -0.361552 -0.897700 0.395888
v -0.023824 0.322880 0.038720
v -0.003784 0.315625 0.038010
v 0.015957 0.311430 0.044895
v 0.030948 0.311252 0.057336
v 0.038021 0.315116 0.070742
v 0.033440 0.322260 0.095894
v 0.019977 0.330946 0.115752
v 0.000881 0.339177 0.124678
v -0.019604 0.345074 0.121499
v -0.036787 0.347286 0.106942
v -0.046598 0.345298 0.083472
v -0.046598 0.345298 0.083472
v -0.046955 0.339577 0.057553
v -0.039500 0.331530 0.046402
vn 0.2217 0.2635 -0.9388
vn -0.1019 0.3571 -0.9285
vn -0.0248 0.3976 -0.9172
vn 0.2324 0.3103 -0.9218
vn 0.9634 0.1980 -0.1806
vn 0.7937 0.1031 -0.5995
vn 0.6999 0.2302 -0.6761
vn 0.9494 0.2192 -0.2251
vn 0.9089 0.2468 0.3360
vn 0.9053 0.3227 0.2762
vn 0.6632 0.3413 0.6661
vn 0.6957 0.4427 0.5658
vn 0.2583 0.4792 0.8388
vn 0.3113 0.5960 0.7401
vn -0.1944 0.6095 0.7686
vn -0.1488 0.7285 0.6687
vn -0.5443 0.6889 0.4786
vn -0.4897 0.7839 0.3818
vn -0.6992 0.7097 0.0864
vn -0.6400 0.7675 0.0364
vn -0.6236 0.6549 -0.4269
vn -0.6992 0.7097 0.0865
vn -0.5888 0.6619 -0.4638
vn -0.4186 0.4521 -0.7877
vn -0.2553 0.5052 -0.8244
vn 0.7096 0.4831 -0.5129
vn 0.5233 0.4507 -0.7232
vn 0.2700 0.4917 -0.8279
vn 0.0150 0.5970 -0.8021
vn -0.1774 0.7384 -0.6506
vn -0.2645 0.8788 -0.3971
vn -0.2289 0.9634 -0.1394
vn -0.0870 0.9948 0.0538
vn 0.1242 0.9761 0.1786
vn 0.3574 0.9089 0.2148
vn 0.5725 0.8049 0.1561
vn 0.7249 0.6888 0.0087
vn 0.7818 0.5777 -0.2347
vn 0.5283 0.1757 -0.8307
vn 0.4840 0.2511 -0.8383
vn -0.4452 -0.6934 -0.5666
vn -0.1352 -0.7913 -0.5963
vn 0.1574 -0.8669 -0.4730
vn 0.3787 -0.9024 -0.2055
vn 0.4634 -0.8717 0.1592
vn 0.3883 -0.7905 0.4736
vn 0.1825 -0.7033 0.6871
vn -0.1193 -0.6055 0.7869
vn -0.4394 -0.5134 0.7372
vn -0.7056 -0.4476 0.5493
vn -0.8572 -0.4320 0.2803
vn -0.8719 -0.4873 -0.0480
vn -0.7172 -0.5870 -0.3756
vn -0.3939 -0.2745 -0.8772
vn -0.7334 -0.0292 -0.6792
vn -0.9168 0.2549 -0.3075
vn -0.8858 0.4445 0.1330
vn -0.8859 0.4445 0.1330
vn -0.6499 0.5570 0.5171
vn -0.0870 0.9948 0.0537
vn -0.2341 0.5554 0.7979
vn 0.2540 0.4149 0.8737
vn 0.6690 0.1773 0.7218
vn 0.9086 -0.0720 0.4115
vn 0.7248 0.6889 0.0086
vn 0.9584 -0.2851 -0.0168
vn 0.7669 -0.4611 -0.4463
vn 0.4211 -0.5091 -0.7506
vn 0.5233 0.4506 -0.7233
vn 0.0112 -0.4438 -0.8961
vn 0.2700 0.4916 -0.8279
vn -0.1747 0.1851 -0.9671
vn -0.1596 0.1894 -0.9688
vn 0.1711 0.0654 -0.9831
vn 0.1674 0.0507 -0.9846
vn -0.1610 0.2442 -0.9563
vn -0.1942 0.1730 -0.9656
vn 0.1641 0.0393 -0.9857
vn 0.1841 0.1132 -0.9764
vn -0.1878 0.2243 -0.9562
vn -0.1847 0.2164 -0.9587
vn 0.1767 0.0854 -0.9806
vn 0.1782 0.0907 -0.9798
vn -0.1663 0.2789 -0.9458
vn -0.2017 0.2044 -0.9579
vn 0.1733 0.0723 -0.9822
vn 0.1938 0.1507 -0.9694
vn -0.1248 0.2526 -0.9595
vn -0.1793 0.2564 -0.9498
vn 0.1888 0.1295 -0.9734
vn 0.1913 0.1410 -0.9713
vn -0.1493 0.2240 -0.9631
vn 0.1851 0.1158 -0.9759
vn -0.4701 0.3826 -0.7953
vn -0.4544 0.3552 -0.8169
vn -0.4580 0.4265 -0.7799
vn -0.5081 0.3507 -0.7867
vn -0.5107 0.4018 -0.7601
vn -0.5018 0.3852 -0.7745
vn -0.4911 0.4453 -0.7487
vn -0.5340 0.3705 -0.7600
vn -0.4035 0.3956 -0.8250
vn -0.5141 0.4135 -0.7515
vn -0.4727 0.3496 -0.8089
vn -0.6744 0.6196 -0.4016
vn -0.6368 0.6217 -0.4560
vn -0.6664 0.6316 -0.3961
vn -0.6996 0.5810 -0.4160
vn -0.7121 0.5900 -0.3806
vn -0.6962 0.5940 -0.4031
vn -0.6815 0.6224 -0.3849
vn -0.7504 0.5399 -0.3813
vn -0.7277 0.5516 -0.4076
vn -0.7445 0.5501 -0.3784
vn -0.5889 0.6619 -0.4638
vn -0.7063 0.5634 -0.4286
vn -0.6360 0.7714 0.0215
vn -0.6338 0.7735 -0.0017
vn -0.6416 0.7666 0.0279
vn -0.6929 0.7204 0.0289
vn -0.7105 0.7027 0.0371
vn -0.6969 0.7160 0.0416
vn -0.7081 0.7059 0.0200
vn -0.7498 0.6592 0.0573
vn -0.7443 0.6610 0.0959
vn -0.7516 0.6582 0.0433
vn -0.7857 0.6109 0.0976
vn -0.4305 0.8389 0.3330
vn -0.4509 0.8293 0.3299
vn -0.4433 0.8233 0.3544
vn -0.4998 0.7754 0.3859
vn -0.6929 0.7205 0.0289
vn -0.6416 0.7665 0.0279
vn -0.5162 0.7586 0.3977
vn -0.5068 0.7599 0.4071
vn -0.7105 0.7028 0.0371
vn -0.5303 0.7513 0.3929
vn -0.5569 0.7023 0.4434
vn -0.5654 0.6804 0.4662
vn -0.5721 0.6930 0.4386
vn -0.7442 0.6610 0.0959
vn -0.6197 0.6065 0.4981
vn -0.6400 0.7675 0.0363
vn -0.0806 0.8207 0.5656
vn -0.0995 0.8042 0.5860
vn -0.0949 0.7967 0.5968
vn -0.1344 0.7449 0.6535
vn -0.1457 0.7278 0.6701
vn -0.1437 0.7217 0.6771
vn -0.1587 0.7145 0.6814
vn -0.1802 0.6599 0.7294
vn -0.1983 0.6254 0.7547
vn -0.1935 0.6448 0.7395
vn -0.2421 0.5378 0.8076
vn 0.3333 0.7016 0.6299
vn 0.3342 0.6793 0.6533
vn 0.3235 0.6763 0.6618
vn 0.3125 0.6162 0.7229
vn 0.3081 0.5972 0.7406
vn 0.3016 0.5936 0.7461
vn 0.3086 0.5800 0.7539
vn 0.2842 0.5262 0.8014
vn 0.2736 0.4895 0.8279
vn 0.2841 0.5073 0.8136
vn 0.3114 0.5960 0.7401
vn 0.2485 0.3965 0.8837
vn 0.6902 0.5163 0.5070
vn 0.7026 0.4973 0.5090
vn 0.6865 0.4981 0.5298
vn 0.6983 0.4305 0.5718
vn 0.6994 0.4087 0.5864
vn 0.6898 0.4155 0.5930
vn 0.7083 0.3947 0.5852
vn 0.6903 0.3436 0.6367
vn 0.6793 0.3221 0.6594
vn 0.6990 0.3271 0.6359
vn 0.6757 0.2336 0.6992
vn 0.9082 0.3269 0.2612
vn 0.9141 0.3278 0.2385
vn 0.9084 0.3204 0.2686
vn 0.9256 0.2545 0.2800
vn 0.9283 0.2310 0.2914
vn 0.9230 0.2497 0.2929
vn 0.9328 0.2335 0.2746
vn 0.9317 0.1754 0.3180
vn 0.9173 0.1826 0.3538
vn 0.9365 0.1722 0.3053
vn 0.9242 0.1187 0.3631
vn 0.9789 0.1437 -0.1450
vn 0.9650 0.1606 -0.2073
vn 0.9772 0.1584 -0.1410
vn 0.9832 0.0965 -0.1548
vn 0.9881 0.1006 -0.1167
vn 0.9836 0.1106 -0.1422
vn 0.9815 0.1437 -0.1268
vn 0.9931 0.0380 -0.1106
vn 0.9883 0.0576 -0.1413
vn 0.9928 0.0500 -0.1088
vn 0.9494 0.2192 -0.2250
vn 0.9830 0.0772 -0.1665
vn 0.8013 0.0166 -0.5980
vn 0.7804 -0.0002 -0.6253
vn 0.8101 0.0615 -0.5831
vn 0.8129 -0.0296 -0.5816
vn 0.8342 0.0146 -0.5513
vn 0.8223 0.0035 -0.5690
vn 0.8377 0.0627 -0.5425
vn 0.8367 -0.0240 -0.5471
vn 0.7627 0.0599 -0.6440
vn 0.8405 0.0236 -0.5413
vn 0.7900 -0.0138 -0.6129
vn 0.5084 -0.0115 -0.8610
vn 0.4991 -0.0001 -0.8666
vn 0.5251 0.0467 -0.8498
vn 0.5175 -0.0318 -0.8551
vn 0.5364 0.0159 -0.8438
vn 0.5306 0.0104 -0.8476
vn 0.5444 0.0743 -0.8355
vn 0.5377 -0.0084 -0.8431
vn 0.5011 0.0724 -0.8623
vn 0.5443 0.0481 -0.8375
vn 0.4840 0.2511 -0.8382
vn 0.5071 0.0351 -0.8612
vn 0.1913 0.1410 -0.9714
vn 0.2736 0.4896 0.8279
vn -0.4036 0.3956 -0.8250
vn 0.8377 0.0628 -0.5424
vn 0.9328 0.2336 0.2746
vn 0.7083 0.3948 0.5852
vn 0.3085 0.5800 0.7539
vn -0.5302 0.7513 0.3929
vn -0.7081 0.7058 0.0199
vn -0.6815 0.6224 -0.3850
vn 0.8342 0.0147 -0.5513
vn 0.9881 0.1006 -0.1168
vn 0.6994 0.4086 0.5864
vn -0.1457 0.7278 0.6702
vn -0.5108 0.4018 -0.7601
vn -0.1879 0.2244 -0.9562
vn 0.5251 0.0468 -0.8498
vn 0.9772 0.1585 -0.1410
vn 0.9084 0.3204 0.2685
vn -0.6416 0.7666 0.0280
vn -0.6665 0.6316 -0.3961
vn -0.4580 0.4266 -0.7799
vn 0.9083 0.3269 0.2612
vn 0.3332 0.7016 0.6299
vn -0.4305 0.8389 0.3331
vn -0.6743 0.6196 -0.4016
vn 0.1476 -0.0203 -0.9888
vn 0.4930 -0.0793 -0.8664
vn 0.7875 -0.0393 -0.6151
vn 0.9878 0.0737 -0.1373
vn 0.9079 0.2902 0.3024
vn 0.6789 0.4940 0.5432
vn 0.3217 0.6842 0.6545
vn -0.0872 0.8019 0.5911
vn -0.4432 0.8169 0.3691
vn -0.6663 0.7434 0.0581
vn -0.7201 0.5653 -0.4024
vn -0.4832 0.3265 -0.8123
vn -0.1960 0.1190 -0.9734
vn 0.3787 -0.9024 -0.2054
vn 0.1575 -0.8669 -0.4730
vn -0.7057 -0.4476 0.5493
vn -0.4393 -0.5134 0.7372
vn 0.4634 -0.8717 0.1593
vn 0.7875 -0.0392 -0.6151
vn -0.4431 0.8170 0.3690
vn -0.7201 0.5653 -0.4023
vt 0.263043 0.840574
vt 0.279250 0.894339
vt 0.313055 0.874665
vt 0.301929 0.836730
vt 0.312089 0.724871
vt 0.291691 0.744197
vt 0.321136 0.764965
vt 0.336163 0.741772
vt 0.340004 0.697377
vt 0.360657 0.710228
vt 0.358686 0.671085
vt 0.375931 0.680917
vt 0.367086 0.647396
vt 0.391183 0.653658
vt 0.370543 0.624226
vt 0.391339 0.623458
vt 0.367691 0.599960
vt 0.386014 0.596264
vt 0.355923 0.563022
vt 0.382174 0.564870
vt 0.334444 0.945223
vt 0.378763 0.972763
vt 0.391339 0.944192
vt 0.354563 0.922800
vt 0.310115 0.929664
vt 0.334822 0.903316
vt 0.125419 0.203295
vt 0.114339 0.182183
vt 0.094716 0.168639
vt 0.071047 0.165765
vt 0.048754 0.174220
vt 0.032943 0.192067
vt 0.027237 0.215217
vt 0.032943 0.238367
vt 0.048754 0.256213
vt 0.071047 0.264668
vt 0.094716 0.261794
vt 0.114339 0.248250
vt 0.125419 0.227138
vt 0.268406 0.784698
vt 0.305414 0.797350
vt 0.080942 0.319142
vt 0.053613 0.329506
vt 0.034232 0.351384
vt 0.027237 0.379763
vt 0.034232 0.408142
vt 0.053613 0.430019
vt 0.080942 0.440384
vt 0.109957 0.436861
vt 0.134012 0.420257
vt 0.147595 0.394377
vt 0.147595 0.365149
vt 0.134012 0.339268
vt 0.109957 0.322665
vt 0.129742 0.855656
vt 0.122737 0.889330
vt 0.167767 0.874587
vt 0.163782 0.841738
vt 0.115083 0.918169
vt 0.169392 0.906448
vt 0.097936 0.972763
vt 0.173021 0.937146
vt 0.115670 0.494857
vt 0.079191 0.539094
vt 0.151262 0.571471
vt 0.173021 0.551920
vt 0.058924 0.576539
vt 0.138049 0.598256
vt 0.050824 0.614362
vt 0.133140 0.626886
vt 0.055239 0.652460
vt 0.132283 0.656840
vt 0.070420 0.691085
vt 0.137268 0.686823
vt 0.090330 0.723569
vt 0.143969 0.717201
vt 0.104268 0.747064
vt 0.151414 0.748565
vt 0.119562 0.776967
vt 0.156085 0.781571
vt 0.130290 0.815509
vt 0.157564 0.811996
vt 0.726597 0.624601
vt 0.671855 0.622176
vt 0.666008 0.649030
vt 0.722979 0.653818
vt 0.857013 0.876207
vt 0.904054 0.872421
vt 0.906420 0.843650
vt 0.856383 0.844235
vt 0.652490 0.381658
vt 0.691776 0.376774
vt 0.690987 0.343552
vt 0.647936 0.346166
vt 0.456626 0.386927
vt 0.479029 0.388219
vt 0.474301 0.357888
vt 0.454736 0.360056
vt 0.236030 0.404641
vt 0.257066 0.411775
vt 0.246219 0.369830
vt 0.229318 0.372020
vt 0.455419 0.873591
vt 0.484130 0.885579
vt 0.469431 0.833850
vt 0.445812 0.835939
vt 0.734088 0.597460
vt 0.682053 0.599657
vt 0.854938 0.906788
vt 0.898629 0.898788
vt 0.655867 0.414393
vt 0.692105 0.407622
vt 0.459876 0.415042
vt 0.486357 0.416856
vt 0.246739 0.434941
vt 0.275356 0.445938
vt 0.474376 0.903747
vt 0.512668 0.920383
vt 0.745543 0.573408
vt 0.692736 0.583566
vt 0.850795 0.935450
vt 0.891623 0.920605
vt 0.657957 0.443921
vt 0.691314 0.434441
vt 0.464068 0.441823
vt 0.494695 0.442083
vt 0.257516 0.461240
vt 0.293280 0.468749
vt 0.492206 0.924176
vt 0.534068 0.939752
vt 0.777530 0.548092
vt 0.723958 0.551185
vt 0.832877 0.972763
vt 0.875617 0.965108
vt 0.654722 0.483968
vt 0.692157 0.483336
vt 0.470924 0.480631
vt 0.514015 0.485346
vt 0.272603 0.498464
vt 0.324832 0.504606
vt 0.509946 0.962479
vt 0.572728 0.972763
vt 0.752067 0.919681
vt 0.718388 0.933057
vt 0.671009 0.972763
vt 0.725336 0.951953
vt 0.846382 0.570364
vt 0.872260 0.562029
vt 0.899732 0.514469
vt 0.859501 0.533077
vt 0.656350 0.074637
vt 0.684691 0.073936
vt 0.696039 0.027237
vt 0.659542 0.036710
vt 0.463833 0.079387
vt 0.504004 0.090076
vt 0.507155 0.040003
vt 0.462667 0.038540
vt 0.267252 0.095439
vt 0.314318 0.111102
vt 0.311551 0.066774
vt 0.259001 0.057735
vt 0.513530 0.571997
vt 0.565735 0.586134
vt 0.556158 0.546736
vt 0.498201 0.539820
vt 0.772011 0.886208
vt 0.748594 0.889964
vt 0.836941 0.604955
vt 0.855262 0.602955
vt 0.654365 0.107278
vt 0.677678 0.108712
vt 0.457958 0.118516
vt 0.500621 0.127218
vt 0.264768 0.131295
vt 0.313156 0.142816
vt 0.515925 0.604093
vt 0.567143 0.613571
vt 0.777530 0.848256
vt 0.755248 0.838380
vt 0.832003 0.639697
vt 0.851012 0.645969
vt 0.650023 0.137880
vt 0.675278 0.141478
vt 0.450027 0.157430
vt 0.496989 0.162088
vt 0.257275 0.164282
vt 0.308763 0.171727
vt 0.510956 0.632739
vt 0.564373 0.638477
vt 0.766197 0.810549
vt 0.737715 0.789768
vt 0.835208 0.676350
vt 0.858353 0.689010
vt 0.646844 0.171178
vt 0.674478 0.176108
vt 0.447993 0.198789
vt 0.489801 0.196466
vt 0.249943 0.200219
vt 0.298384 0.199024
vt 0.502214 0.664211
vt 0.555566 0.661752
vt 0.748505 0.773522
vt 0.706164 0.749001
vt 0.841700 0.714201
vt 0.874122 0.731248
vt 0.645744 0.208322
vt 0.677065 0.215306
vt 0.445812 0.239412
vt 0.482733 0.234540
vt 0.240191 0.238318
vt 0.283930 0.229879
vt 0.487452 0.699995
vt 0.538586 0.689188
vt 0.731066 0.735443
vt 0.682680 0.717816
vt 0.849406 0.753757
vt 0.889261 0.767651
vt 0.646746 0.247732
vt 0.680625 0.254260
vt 0.446155 0.278340
vt 0.475466 0.272048
vt 0.233968 0.278491
vt 0.266575 0.263015
vt 0.476117 0.741032
vt 0.514287 0.719300
vt 0.724259 0.710795
vt 0.674188 0.700532
vt 0.853655 0.781901
vt 0.897077 0.788799
vt 0.647648 0.277432
vt 0.684440 0.280068
vt 0.447748 0.305307
vt 0.473089 0.297846
vt 0.230149 0.306727
vt 0.255066 0.288921
vt 0.462059 0.764180
vt 0.496856 0.741336
vt 0.721564 0.683175
vt 0.667438 0.676572
vt 0.856312 0.812275
vt 0.903311 0.814939
vt 0.648152 0.310379
vt 0.687768 0.310524
vt 0.450702 0.333427
vt 0.472263 0.327272
vt 0.227495 0.338766
vt 0.246021 0.326517
vt 0.448660 0.797186
vt 0.474818 0.780374
vt 0.509175 0.830325
vt 0.513041 0.791370
vt 0.528625 0.758124
vt 0.541865 0.731131
vt 0.560583 0.697823
vt 0.572324 0.668676
vt 0.583904 0.643904
vt 0.591270 0.614516
vt 0.585685 0.584242
vt 0.583123 0.551800
vt 0.591270 0.947845
vt 0.559540 0.921927
vt 0.541065 0.897957
vt 0.519836 0.867991
vt 0.276639 0.365885
vt 0.277438 0.331414
vt 0.285759 0.298498
vt 0.293092 0.270507
vt 0.305151 0.237742
vt 0.319874 0.209084
vt 0.333376 0.179481
vt 0.343199 0.145588
vt 0.339991 0.109790
vt 0.339511 0.074402
vt 0.343199 0.481024
vt 0.317350 0.453817
vt 0.302668 0.428716
vt 0.286204 0.399013
vt 0.495761 0.355508
vt 0.495736 0.328755
vt 0.498519 0.301223
vt 0.503599 0.274830
vt 0.507609 0.238601
vt 0.516643 0.203940
vt 0.526639 0.168586
vt 0.535288 0.130279
vt 0.534161 0.090297
vt 0.538358 0.051027
vt 0.538358 0.466154
vt 0.521231 0.432267
vt 0.510354 0.407830
vt 0.501595 0.381612
vt 0.713621 0.342163
vt 0.713122 0.310781
vt 0.711613 0.279539
vt 0.710005 0.250768
vt 0.702822 0.213515
vt 0.701863 0.178434
vt 0.703990 0.145053
vt 0.709453 0.111880
vt 0.712896 0.077041
vt 0.723638 0.041671
vt 0.723638 0.473793
vt 0.721553 0.433708
vt 0.719379 0.404717
vt 0.716987 0.373406
vt 0.925632 0.843420
vt 0.925673 0.814844
vt 0.922240 0.785703
vt 0.916600 0.758835
vt 0.900465 0.723611
vt 0.890528 0.686003
vt 0.886862 0.647917
vt 0.892754 0.610100
vt 0.904293 0.572162
vt 0.926323 0.536800
vt 0.907642 0.965527
vt 0.919013 0.927492
vt 0.923639 0.900930
vt 0.926323 0.871924
vt 0.647843 0.647494
vt 0.645744 0.675616
vt 0.649112 0.704768
vt 0.656691 0.730481
vt 0.681744 0.763115
vt 0.703107 0.800031
vt 0.714288 0.839099
vt 0.708418 0.878066
vt 0.687166 0.913397
vt 0.651825 0.941801
vt 0.695639 0.538442
vt 0.669622 0.569104
vt 0.658650 0.592102
vt 0.650579 0.619629
vt 0.253605 0.770039
vt 0.232610 0.804245
vt 0.227495 0.844083
vt 0.240300 0.882154
vt 0.267577 0.911616
vt 0.293373 0.940874
vt 0.313547 0.971550
vt 0.298588 0.559079
vt 0.310287 0.586024
vt 0.311295 0.616298
vt 0.309326 0.644179
vt 0.301462 0.672792
vt 0.287742 0.702536
vt 0.273243 0.736388
vt 0.057341 0.824668
vt 0.062325 0.861467
vt 0.053190 0.787829
vt 0.047246 0.755496
vt 0.040512 0.729513
vt 0.028192 0.684121
vt 0.027237 0.641097
vt 0.033133 0.607138
vt 0.036547 0.575703
vt 0.046627 0.539817
vt 0.062207 0.499316
vt 0.062390 0.921852
vt 0.042679 0.964712
vt 0.064095 0.894553
s 1
usemtl palmTree_M
f 102/50/43 99/51/44 100/52/45
f 100/52/45 101/53/46 102/50/43
f 106/54/47 103/55/48 104/56/49
f 104/56/49 105/57/50 106/54/47
f 108/58/51 106/54/47 105/57/50
f 105/57/50 107/59/52 108/58/51
f 110/60/53 108/58/51 107/59/52
f 107/59/52 109/61/54 110/60/53
f 112/62/55 110/60/53 109/61/54
f 109/61/54 111/63/56 112/62/55
f 114/64/57 112/62/55 111/63/56
f 111/63/56 113/65/58 114/64/57
f 116/66/59 114/64/57 113/65/58
f 113/65/58 115/67/60 116/66/59
f 118/68/61 116/66/59 115/67/60
f 115/67/60 117/69/62 118/68/61
f 122/70/63 119/71/64 120/72/62
f 120/72/62 121/73/65 122/70/63
f 124/74/66 122/70/63 121/73/65
f 121/73/65 123/75/67 124/74/66
f 99/51/44 124/74/66 123/75/67
f 123/75/67 100/52/45 99/51/44
f 137/76/68 125/77/69 126/78/70
f 137/76/68 126/78/70 127/79/71
f 137/76/68 127/79/71 128/80/72
f 137/76/68 128/80/72 129/81/73
f 137/76/68 129/81/73 130/82/74
f 137/76/68 130/82/74 131/83/75
f 137/76/68 131/83/75 132/84/76
f 137/76/68 132/84/76 133/85/77
f 137/76/68 133/85/77 134/86/78
f 137/76/68 134/86/78 135/87/79
f 135/87/79 136/88/80 137/76/68
f 139/89/81 102/50/43 101/53/46
f 101/53/46 138/90/82 139/89/81
f 152/91/83 140/92/84 141/93/85
f 152/91/83 141/93/85 142/94/86
f 152/91/83 142/94/86 143/95/87
f 152/91/83 143/95/87 144/96/88
f 152/91/83 144/96/88 145/97/89
f 152/91/83 145/97/89 146/98/90
f 152/91/83 146/98/90 147/99/91
f 152/91/83 147/99/91 148/100/92
f 152/91/83 148/100/92 149/101/93
f 152/91/83 149/101/93 150/102/94
f 150/102/94 151/103/95 152/91/83
f 103/55/48 139/89/81 138/90/82
f 138/90/82 104/56/49 103/55/48
f 156/104/96 153/105/97 154/106/72
f 154/106/72 155/107/71 156/104/96
f 153/105/97 157/108/98 158/109/73
f 158/109/73 154/106/72 153/105/97
f 157/108/98 159/110/99 160/111/74
f 160/111/74 158/109/73 157/108/98
f 164/112/100 161/113/101 162/114/102
f 162/114/102 163/115/74 164/112/100
f 161/113/101 165/116/103 166/117/76
f 166/117/76 162/114/102 161/113/101
f 165/116/103 167/118/104 168/119/77
f 168/119/77 166/117/76 165/116/103
f 167/118/104 169/120/105 170/121/78
f 170/121/78 168/119/77 167/118/104
f 169/120/105 171/122/106 172/123/107
f 172/123/107 170/121/78 169/120/105
f 171/122/106 173/124/108 174/125/80
f 174/125/80 172/123/107 171/122/106
f 173/124/108 175/126/109 176/127/68
f 176/127/68 174/125/80 173/124/108
f 175/126/109 177/128/110 178/129/111
f 178/129/111 176/127/68 175/126/109
f 177/128/110 179/130/112 180/131/113
f 180/131/113 178/129/111 177/128/110
f 184/132/114 181/133/115 182/134/116
f 182/134/116 183/135/117 184/132/114
f 188/136/118 185/137/119 186/138/120
f 186/138/120 187/139/121 188/136/118
f 192/140/122 189/141/123 190/142/124
f 190/142/124 191/143/125 192/140/122
f 196/144/126 193/145/127 194/146/128
f 194/146/128 195/147/129 196/144/126
f 200/148/130 197/149/131 198/150/132
f 198/150/132 199/151/133 200/148/130
f 204/152/45 201/153/134 202/154/135
f 202/154/135 203/155/46 204/152/45
f 206/156/136 205/157/137 181/133/115
f 181/133/115 184/132/114 206/156/136
f 208/158/138 207/159/139 185/137/119
f 185/137/119 188/136/118 208/158/138
f 210/160/140 209/161/141 189/141/123
f 189/141/123 192/140/122 210/160/140
f 212/162/142 211/163/143 193/145/127
f 193/145/127 196/144/126 212/162/142
f 214/164/144 213/165/145 197/149/131
f 197/149/131 200/148/130 214/164/144
f 216/166/67 215/167/146 201/153/134
f 201/153/134 204/152/45 216/166/67
f 218/168/147 217/169/148 205/157/137
f 205/157/137 206/156/136 218/168/147
f 220/170/149 219/171/150 207/159/139
f 207/159/139 208/158/138 220/170/149
f 222/172/151 221/173/152 209/161/141
f 209/161/141 210/160/140 222/172/151
f 224/174/153 223/175/154 211/163/143
f 211/163/143 212/162/142 224/174/153
f 226/176/155 225/177/156 213/165/145
f 213/165/145 214/164/144 226/176/155
f 228/178/157 227/179/158 215/167/146
f 215/167/146 216/166/67 228/178/157
f 230/180/159 229/181/160 217/169/148
f 217/169/148 218/168/147 230/180/159
f 232/182/161 231/183/162 219/171/150
f 219/171/150 220/170/149 232/182/161
f 234/184/163 233/185/164 221/173/152
f 221/173/152 222/172/151 234/184/163
f 236/186/165 235/187/166 223/175/154
f 223/175/154 224/174/153 236/186/165
f 238/188/167 237/189/168 225/177/156
f 225/177/156 226/176/155 238/188/167
f 240/190/62 239/191/169 227/179/158
f 227/179/158 228/178/157 240/190/62
f 244/192/170 241/193/171 242/194/160
f 242/194/160 243/195/159 244/192/170
f 248/196/172 245/197/173 246/198/174
f 246/198/174 247/199/175 248/196/172
f 252/200/176 249/201/177 250/202/164
f 250/202/164 251/203/178 252/200/176
f 256/204/179 253/205/180 254/206/166
f 254/206/166 255/207/165 256/204/179
f 260/208/181 257/209/182 258/210/168
f 258/210/168 259/211/183 260/208/181
f 264/212/60 261/213/184 262/214/169
f 262/214/169 263/215/185 264/212/60
f 266/216/186 265/217/187 241/193/171
f 241/193/171 244/192/170 266/216/186
f 268/218/188 267/219/189 245/197/173
f 245/197/173 248/196/172 268/218/188
f 270/220/190 269/221/191 249/201/177
f 249/201/177 252/200/176 270/220/190
f 272/222/192 271/223/193 253/205/180
f 253/205/180 256/204/179 272/222/192
f 274/224/194 273/225/195 257/209/182
f 257/209/182 260/208/181 274/224/194
f 276/226/58 275/227/196 261/213/184
f 261/213/184 264/212/60 276/226/58
f 278/228/197 277/229/198 265/217/187
f 265/217/187 266/216/186 278/228/197
f 280/230/199 279/231/200 267/219/189
f 267/219/189 268/218/188 280/230/199
f 282/232/201 281/233/202 269/221/191
f 269/221/191 270/220/190 282/232/201
f 284/234/203 283/235/204 271/223/193
f 271/223/193 272/222/192 284/234/203
f 286/236/205 285/237/206 273/225/195
f 273/225/195 274/224/194 286/236/205
f 288/238/207 287/239/208 275/227/196
f 275/227/196 276/226/58 288/238/207
f 290/240/209 289/241/210 277/229/198
f 277/229/198 278/228/197 290/240/209
f 292/242/211 291/243/212 279/231/200
f 279/231/200 280/230/199 292/242/211
f 294/244/213 293/245/214 281/233/202
f 281/233/202 282/232/201 294/244/213
f 296/246/215 295/247/216 283/235/204
f 283/235/204 284/234/203 296/246/215
f 298/248/217 297/249/218 285/237/206
f 285/237/206 286/236/205 298/248/217
f 300/250/54 299/251/219 287/239/208
f 287/239/208 288/238/207 300/250/54
f 302/252/220 301/253/221 289/241/210
f 289/241/210 290/240/209 302/252/220
f 304/254/222 303/255/223 291/243/212
f 291/243/212 292/242/211 304/254/222
f 306/256/224 305/257/225 293/245/214
f 293/245/214 294/244/213 306/256/224
f 308/258/226 307/259/227 295/247/216
f 295/247/216 296/246/215 308/258/226
f 310/260/228 309/261/229 297/249/218
f 297/249/218 298/248/217 310/260/228
f 312/262/52 311/263/230 299/251/219
f 299/251/219 300/250/54 312/262/52
f 314/264/231 313/265/232 301/253/221
f 301/253/221 302/252/220 314/264/231
f 316/266/233 315/267/234 303/255/223
f 303/255/223 304/254/222 316/266/233
f 318/268/235 317/269/236 305/257/225
f 305/257/225 306/256/224 318/268/235
f 320/270/237 319/271/238 307/259/227
f 307/259/227 308/258/226 320/270/237
f 322/272/239 321/273/240 309/261/229
f 309/261/229 310/260/228 322/272/239
f 324/274/241 323/275/242 311/263/230
f 311/263/230 312/262/52 324/274/241
f 326/276/243 325/277/244 313/265/232
f 313/265/232 314/264/231 326/276/243
f 328/278/245 327/279/246 315/267/234
f 315/267/234 316/266/233 328/278/245
f 330/280/247 329/281/248 317/269/236
f 317/269/236 318/268/235 330/280/247
f 332/282/249 331/283/250 319/271/238
f 319/271/238 320/270/237 332/282/249
f 334/284/251 333/285/252 321/273/240
f 321/273/240 322/272/239 334/284/251
f 336/286/49 335/287/253 323/275/242
f 323/275/242 324/274/241 336/286/49
f 338/288/254 337/289/255 325/277/244
f 325/277/244 326/276/243 338/288/254
f 340/290/256 339/291/257 327/279/246
f 327/279/246 328/278/245 340/290/256
f 342/292/258 341/293/259 329/281/248
f 329/281/248 330/280/247 342/292/258
f 344/294/260 343/295/261 331/283/250
f 331/283/250 332/282/249 344/294/260
f 346/296/262 345/297/263 333/285/252
f 333/285/252 334/284/251 346/296/262
f 348/298/264 347/299/265 335/287/253
f 335/287/253 336/286/49 348/298/264
f 183/135/117 182/134/116 337/289/255
f 337/289/255 338/288/254 183/135/117
f 187/139/121 186/138/120 339/291/257
f 339/291/257 340/290/256 187/139/121
f 191/143/125 190/142/124 341/293/259
f 341/293/259 342/292/258 191/143/125
f 195/147/129 194/146/128 343/295/261
f 343/295/261 344/294/260 195/147/129
f 199/151/133 198/150/132 345/297/263
f 345/297/263 346/296/262 199/151/133
f 203/155/46 202/154/135 347/299/265
f 347/299/265 348/298/264 203/155/46
f 179/130/112 156/104/96 155/107/71
f 155/107/71 180/131/113 179/130/112
f 202/154/135 349/300/266 350/301/262
f 350/301/262 347/299/265 202/154/135
f 347/299/265 350/301/262 351/302/251
f 351/302/251 335/287/253 347/299/265
f 335/287/253 351/302/251 352/303/239
f 352/303/239 323/275/242 335/287/253
f 323/275/242 352/303/239 353/304/228
f 353/304/228 311/263/230 323/275/242
f 311/263/230 353/304/228 354/305/217
f 354/305/217 299/251/219 311/263/230
f 299/251/219 354/305/217 355/306/267
f 355/306/267 287/239/208 299/251/219
f 287/239/208 355/306/267 356/307/194
f 356/307/194 275/227/196 287/239/208
f 275/227/196 356/307/194 357/308/181
f 357/308/181 261/213/184 275/227/196
f 261/213/184 357/308/181 358/309/167
f 358/309/167 262/214/169 261/213/184
f 239/191/169 359/310/167 360/311/155
f 360/311/155 227/179/158 239/191/169
f 227/179/158 360/311/155 361/312/268
f 361/312/268 215/167/146 227/179/158
f 215/167/146 361/312/268 362/313/130
f 362/313/130 201/153/134 215/167/146
f 201/153/134 362/313/130 349/300/266
f 349/300/266 202/154/135 201/153/134
f 198/150/132 363/314/129 364/315/260
f 364/315/260 345/297/263 198/150/132
f 345/297/263 364/315/260 365/316/269
f 365/316/269 333/285/252 345/297/263
f 333/285/252 365/316/269 366/317/237
f 366/317/237 321/273/240 333/285/252
f 321/273/240 366/317/237 367/318/270
f 367/318/270 309/261/229 321/273/240
f 309/261/229 367/318/270 368/319/271
f 368/319/271 297/249/218 309/261/229
f 297/249/218 368/319/271 369/320/272
f 369/320/272 285/237/206 297/249/218
f 285/237/206 369/320/272 370/321/192
f 370/321/192 273/225/195 285/237/206
f 273/225/195 370/321/192 371/322/273
f 371/322/273 257/209/182 273/225/195
f 257/209/182 371/322/273 372/323/274
f 372/323/274 258/210/168 257/209/182
f 237/189/168 373/324/274 374/325/275
f 374/325/275 225/177/156 237/189/168
f 225/177/156 374/325/275 375/326/142
f 375/326/142 213/165/145 225/177/156
f 213/165/145 375/326/142 376/327/126
f 376/327/126 197/149/131 213/165/145
f 197/149/131 376/327/126 363/314/129
f 363/314/129 198/150/132 197/149/131
f 194/146/128 377/328/125 378/329/258
f 378/329/258 343/295/261 194/146/128
f 343/295/261 378/329/258 379/330/276
f 379/330/276 331/283/250 343/295/261
f 331/283/250 379/330/276 380/331/277
f 380/331/277 319/271/238 331/283/250
f 319/271/238 380/331/277 381/332/224
f 381/332/224 307/259/227 319/271/238
f 307/259/227 381/332/224 382/333/278
f 382/333/278 295/247/216 307/259/227
f 295/247/216 382/333/278 383/334/201
f 383/334/201 283/235/204 295/247/216
f 283/235/204 383/334/201 384/335/279
f 384/335/279 271/223/193 283/235/204
f 271/223/193 384/335/279 385/336/176
f 385/336/176 253/205/180 271/223/193
f 253/205/180 385/336/176 386/337/163
f 386/337/163 254/206/166 253/205/180
f 235/187/166 387/338/163 388/339/151
f 388/339/151 223/175/154 235/187/166
f 223/175/154 388/339/151 389/340/280
f 389/340/280 211/163/143 223/175/154
f 211/163/143 389/340/280 390/341/281
f 390/341/281 193/145/127 211/163/143
f 193/145/127 390/341/281 377/328/125
f 377/328/125 194/146/128 193/145/127
f 190/142/124 391/342/121 392/343/282
f 392/343/282 341/293/259 190/142/124
f 341/293/259 392/343/282 393/344/245
f 393/344/245 329/281/248 341/293/259
f 329/281/248 393/344/245 394/345/283
f 394/345/283 317/269/236 329/281/248
f 317/269/236 394/345/283 395/346/284
f 395/346/284 305/257/225 317/269/236
f 305/257/225 395/346/284 396/347/211
f 396/347/211 293/245/214 305/257/225
f 293/245/214 396/347/211 397/348/199
f 397/348/199 281/233/202 293/245/214
f 281/233/202 397/348/199 398/349/188
f 398/349/188 269/221/191 281/233/202
f 269/221/191 398/349/188 399/350/172
f 399/350/172 249/201/177 269/221/191
f 249/201/177 399/350/172 400/351/161
f 400/351/161 250/202/164 249/201/177
f 233/185/164 401/352/285 402/353/286
f 402/353/286 221/173/152 233/185/164
f 221/173/152 402/353/286 403/354/287
f 403/354/287 209/161/141 221/173/152
f 209/161/141 403/354/287 404/355/118
f 404/355/118 189/141/123 209/161/141
f 189/141/123 404/355/118 391/342/121
f 391/342/121 190/142/124 189/141/123
f 186/138/120 405/356/117 406/357/254
f 406/357/254 339/291/257 186/138/120
f 339/291/257 406/357/254 407/358/243
f 407/358/243 327/279/246 339/291/257
f 327/279/246 407/358/243 408/359/231
f 408/359/231 315/267/234 327/279/246
f 315/267/234 408/359/231 409/360/288
f 409/360/288 303/255/223 315/267/234
f 303/255/223 409/360/288 410/361/209
f 410/361/209 291/243/212 303/255/223
f 291/243/212 410/361/209 411/362/289
f 411/362/289 279/231/200 291/243/212
f 279/231/200 411/362/289 412/363/186
f 412/363/186 267/219/189 279/231/200
f 267/219/189 412/363/186 413/364/290
f 413/364/290 245/197/173 267/219/189
f 245/197/173 413/364/290 414/365/159
f 414/365/159 246/198/174 245/197/173
f 231/183/162 415/366/159 416/367/291
f 416/367/291 219/171/150 231/183/162
f 219/171/150 416/367/291 417/368/136
f 417/368/136 207/159/139 219/171/150
f 207/159/139 417/368/136 418/369/114
f 418/369/114 185/137/119 207/159/139
f 185/137/119 418/369/114 405/356/117
f 405/356/117 186/138/120 185/137/119
f 182/134/116 419/370/292 420/371/293
f 420/371/293 337/289/255 182/134/116
f 337/289/255 420/371/293 421/372/294
f 421/372/294 325/277/244 337/289/255
f 325/277/244 421/372/294 422/373/295
f 422/373/295 313/265/232 325/277/244
f 313/265/232 422/373/295 423/374/296
f 423/374/296 301/253/221 313/265/232
f 301/253/221 423/374/296 424/375/297
f 424/375/297 289/241/210 301/253/221
f 289/241/210 424/375/297 425/376/298
f 425/376/298 277/229/198 289/241/210
f 277/229/198 425/376/298 426/377/299
f 426/377/299 265/217/187 277/229/198
f 265/217/187 426/377/299 427/378/300
f 427/378/300 241/193/171 265/217/187
f 241/193/171 427/378/300 428/379/301
f 428/379/301 242/194/160 241/193/171
f 229/181/160 429/380/301 430/381/302
f 430/381/302 217/169/148 229/181/160
f 217/169/148 430/381/302 431/382/303
f 431/382/303 205/157/137 217/169/148
f 205/157/137 431/382/303 432/383/304
f 432/383/304 181/133/115 205/157/137
f 181/133/115 432/383/304 419/370/292
f 419/370/292 182/134/116 181/133/115
f 434/384/305 433/385/306 139/89/81
f 139/89/81 103/55/48 434/384/305
f 433/385/306 435/386/84 102/50/43
f 102/50/43 139/89/81 433/385/306
f 437/387/83 436/388/95 124/74/66
f 124/74/66 99/51/44 437/387/83
f 436/388/95 438/389/94 122/70/63
f 122/70/63 124/74/66 436/388/95
f 438/389/94 439/390/93 119/71/64
f 119/71/64 122/70/63 438/389/94
f 441/391/93 440/392/307 116/66/59
f 116/66/59 118/68/61 441/391/93
f 440/392/307 442/393/308 114/64/57
f 114/64/57 116/66/59 440/392/307
f 442/393/308 443/394/90 112/62/55
f 112/62/55 114/64/57 442/393/308
f 443/394/90 444/395/89 110/60/53
f 110/60/53 112/62/55 443/394/90
f 444/395/89 445/396/88 108/58/51
f 108/58/51 110/60/53 444/395/89
f 445/396/88 446/397/309 106/54/47
f 106/54/47 108/58/51 445/396/88
f 446/397/309 434/384/305 103/55/48
f 103/55/48 106/54/47 446/397/309
f 435/386/84 437/387/83 99/51/44
f 99/51/44 102/50/43 435/386/84
f 448/398/292 447/399/304 156/104/96
f 156/104/96 179/130/112 448/398/292
f 449/400/293 448/398/292 179/130/112
f 179/130/112 177/128/110 449/400/293
f 450/401/310 449/400/293 177/128/110
f 177/128/110 175/126/109 450/401/310
f 451/402/295 450/401/310 175/126/109
f 175/126/109 173/124/108 451/402/295
f 452/403/296 451/402/295 173/124/108
f 173/124/108 171/122/106 452/403/296
f 453/404/297 452/403/296 171/122/106
f 171/122/106 169/120/105 453/404/297
f 454/405/298 453/404/297 169/120/105
f 169/120/105 167/118/104 454/405/298
f 455/406/299 454/405/298 167/118/104
f 167/118/104 165/116/103 455/406/299
f 456/407/311 455/406/299 165/116/103
f 165/116/103 161/113/101 456/407/311
f 457/408/301 456/407/311 161/113/101
f 161/113/101 164/112/100 457/408/301
f 459/409/312 458/410/301 159/110/99
f 159/110/99 157/108/98 459/409/312
f 460/411/303 459/409/312 157/108/98
f 157/108/98 153/105/97 460/411/303
f 447/399/304 460/411/303 153/105/97
f 153/105/97 156/104/96 447/399/304
o defaultMaterial.002
v 0.622738 0.491649 0.686419
v 0.478854 0.542972 0.785571
v 0.600190 0.388635 0.911371
v 0.632101 0.377252 0.889381
v 0.569244 0.575870 0.461311
v 0.335991 0.659069 0.622048
v 0.441263 0.583986 0.240135
v 0.181122 0.676776 0.419402
v 0.273088 0.513824 0.082157
v 0.055745 0.591348 0.231930
v 0.046007 0.430918 0.012473
v 0.015281 0.441878 0.033647
v 0.038167 0.319195 -0.860048
v 0.211266 0.269368 -0.833182
v 0.115198 0.115593 -0.979784
v 0.076807 0.126643 -0.985743
v -0.000976 0.485531 -0.682768
v 0.279639 0.404756 -0.639214
v -0.032937 0.566340 -0.442327
v 0.280025 0.476255 -0.393753
v -0.049151 0.539971 -0.203151
v 0.212322 0.464706 -0.162569
v 0.012162 0.441718 0.020191
v 0.049126 0.431078 0.025929
v -0.837469 0.582802 -0.113392
v -0.794731 0.559398 -0.288872
v -0.990521 0.439872 -0.247071
v -1.000000 0.445062 -0.208153
v -0.632793 0.680894 -0.017925
v -0.563508 0.642954 -0.302400
v -0.388985 0.681615 0.059019
v -0.311713 0.639301 -0.258248
v -0.171372 0.584771 0.096824
v -0.106813 0.549419 -0.168246
v 0.026081 0.438897 0.041797
v 0.035207 0.433899 0.004323
v -0.156812 0.761238 0.831152
v -0.320180 0.796231 0.758666
v -0.354727 0.703207 0.969666
v -0.318495 0.695447 0.985742
v -0.003922 0.783524 0.639433
v -0.268761 0.840252 0.521924
v 0.100051 0.716745 0.415616
v -0.195317 0.780012 0.284562
v 0.127247 0.578796 0.219674
v -0.119527 0.631654 0.110181
v 0.048087 0.432662 0.030799
v 0.013201 0.440134 0.015320
v 0.871886 0.149271 -0.036461
v 0.894414 0.240720 0.119415
v 1.000000 0.034119 0.142567
v 0.995004 0.013838 0.107997
v 0.698191 0.278796 -0.153429
v 0.734712 0.427046 0.099264
v 0.462547 0.369869 -0.192685
v 0.503278 0.535208 0.089137
v 0.228094 0.398087 -0.143709
v 0.262124 0.536224 0.091748
v 0.028238 0.426634 0.006417
v 0.033049 0.446162 0.039703
v 0.380203 0.304517 -0.567154
v 0.482008 0.268744 -0.477910
v 0.458088 0.131732 -0.591038
v 0.435509 0.139666 -0.610831
v 0.303354 0.457535 -0.486388
v 0.468393 0.399542 -0.341712
v 0.200717 0.555708 -0.350482
v 0.384781 0.491030 -0.189129
v 0.099793 0.572731 -0.195851
v 0.253575 0.518694 -0.061044
v 0.050390 0.532119 -0.013287
v 0.072130 0.524480 0.005771
v -0.332324 0.845776 -0.465840
v -0.262609 0.766908 -0.558189
v -0.436394 0.761186 -0.601873
v -0.451855 0.778677 -0.581392
v -0.205130 0.874767 -0.328637
v -0.092113 0.746912 -0.478346
v -0.089570 0.823771 -0.178010
v 0.036474 0.681178 -0.344977
v -0.016610 0.706453 -0.054320
v 0.088697 0.587320 -0.193817
v 0.053816 0.536721 0.006103
v 0.068704 0.519879 -0.013618
v -0.363248 0.894518 0.389811
v -0.447586 0.890021 0.278117
v -0.547280 0.855586 0.423091
v -0.528576 0.856583 0.447863
v -0.189966 0.892635 0.313567
v -0.326687 0.885344 0.132497
v -0.037355 0.813880 0.217909
v -0.189837 0.805750 0.015966
v 0.053693 0.679357 0.128467
v -0.073703 0.672564 -0.040252
v 0.070265 0.528780 0.008168
v 0.052255 0.527820 -0.015684
v 0.216160 0.836358 0.588125
v 0.085908 0.887004 0.579288
v 0.111573 0.831778 0.747911
v 0.140460 0.820546 0.749871
v 0.268655 0.819522 0.407005
v 0.057500 0.901626 0.392680
v 0.265183 0.742843 0.226033
v 0.029688 0.834411 0.210056
v 0.206676 0.626867 0.093698
v 0.009925 0.703370 0.080350
v 0.075167 0.522892 -0.002814
v 0.047353 0.533707 -0.004701
v 0.713851 0.575334 0.199052
v 0.660515 0.649604 0.305108
v 0.780444 0.535259 0.373553
v 0.792273 0.518788 0.350032
v 0.595870 0.613068 0.055874
v 0.509405 0.733469 0.227804
v 0.425710 0.606437 -0.042332
v 0.329278 0.740717 0.149417
v 0.248965 0.557217 -0.069252
v 0.168398 0.669405 0.090950
v 0.066955 0.520370 -0.015082
v 0.055565 0.536230 0.007566
vn 0.5379 0.7448 0.3950
vn 0.4929 0.8200 0.2909
vn 0.4929 0.8200 0.2908
vn 0.3561 0.9339 0.0333
vn 0.1488 0.9497 -0.2757
vn -0.0290 0.8699 -0.4924
vn -0.1148 0.8044 -0.5829
vn 0.2827 0.5635 -0.7763
vn 0.2976 0.6641 -0.6859
vn 0.3108 0.8467 -0.4319
vn 0.2867 0.9550 -0.0764
vn 0.2400 0.9475 0.2112
vn 0.2098 0.9149 0.3449
vn -0.5426 0.8051 -0.2395
vn -0.4281 0.8763 -0.2211
vn -0.1373 0.9769 -0.1637
vn 0.2244 0.9716 -0.0749
vn 0.4876 0.8731 0.0023
vn 0.6009 0.7983 0.0399
vn 0.0158 0.9139 0.4055
vn 0.0757 0.9540 0.2900
vn 0.2066 0.9784 0.0067
vn 0.3352 0.8827 -0.3294
vn 0.4040 0.7215 -0.5623
vn 0.4252 0.6209 -0.6586
vn 0.8484 0.3939 -0.3537
vn 0.7706 0.4948 -0.4017
vn 0.5395 0.6899 -0.4827
vn 0.1974 0.8328 -0.5171
vn -0.0915 0.8646 -0.4940
vn -0.2294 0.8536 -0.4676
vn -0.2294 0.8536 -0.4677
vn 0.6804 0.3923 -0.6190
vn 0.6617 0.5086 -0.5509
vn 0.5725 0.7379 -0.3573
vn 0.3941 0.9153 -0.0827
vn 0.2153 0.9662 0.1417
vn 0.1215 0.9614 0.2468
vn 0.1220 0.7983 -0.5897
vn 0.2374 0.8199 -0.5210
vn 0.4837 0.8115 -0.3279
vn 0.7135 0.6982 -0.0576
vn 0.8254 0.5411 0.1609
vn 0.8546 0.4480 0.2625
vn -0.1881 0.9768 0.1027
vn -0.0810 0.9965 0.0210
vn 0.1685 0.9715 -0.1664
vn 0.4424 0.8183 -0.3670
vn 0.6152 0.6181 -0.4894
vn 0.6806 0.5016 -0.5341
vn 0.3367 0.9088 0.2464
vn 0.3534 0.9286 0.1128
vn 0.3668 0.9087 -0.1993
vn 0.3360 0.7693 -0.5433
vn 0.2791 0.5848 -0.7617
vn 0.2428 0.4770 -0.8447
vn 0.7196 0.6844 -0.1174
vn 0.6341 0.7460 -0.2035
vn 0.3949 0.8340 -0.3854
vn 0.0616 0.8319 -0.5516
vn -0.2071 0.7494 -0.6289
vn -0.3316 0.6863 -0.6474
vt 0.209544 0.977026
vt 0.255016 0.792963
vt 0.107258 0.802819
vt 0.176774 0.979212
vt 0.048400 0.611452
vt 0.287934 0.595473
vt 0.020788 0.405407
vt 0.287934 0.387587
vt 0.029794 0.209512
vt 0.252989 0.194624
vt 0.145146 0.020788
vt 0.113593 0.022893
s 1
usemtl PalmLeaf
f 464/412/313 461/413/314 462/414/315
f 462/414/315 463/415/313 464/412/313
f 466/416/316 462/414/315 461/413/314
f 461/413/314 465/417/316 466/416/316
f 468/418/317 466/416/316 465/417/316
f 465/417/316 467/419/317 468/418/317
f 470/420/318 468/418/317 467/419/317
f 467/419/317 469/421/318 470/420/318
f 469/421/318 471/422/319 472/423/319
f 472/423/319 470/420/318 469/421/318
f 476/412/320 473/413/321 474/414/321
f 474/414/321 475/415/320 476/412/320
f 478/416/322 474/414/321 473/413/321
f 473/413/321 477/417/322 478/416/322
f 480/418/323 478/416/322 477/417/322
f 477/417/322 479/419/323 480/418/323
f 482/420/324 480/418/323 479/419/323
f 479/419/323 481/421/324 482/420/324
f 481/421/324 483/422/325 484/423/325
f 484/423/325 482/420/324 481/421/324
f 488/412/326 485/413/327 486/414/327
f 486/414/327 487/415/326 488/412/326
f 490/416/328 486/414/327 485/413/327
f 485/413/327 489/417/328 490/416/328
f 492/418/329 490/416/328 489/417/328
f 489/417/328 491/419/329 492/418/329
f 494/420/330 492/418/329 491/419/329
f 491/419/329 493/421/330 494/420/330
f 493/421/330 495/422/331 496/423/331
f 496/423/331 494/420/330 493/421/330
f 500/412/332 497/413/333 498/414/333
f 498/414/333 499/415/332 500/412/332
f 502/416/334 498/414/333 497/413/333
f 497/413/333 501/417/334 502/416/334
f 504/418/335 502/416/334 501/417/334
f 501/417/334 503/419/335 504/418/335
f 506/420/336 504/418/335 503/419/335
f 503/419/335 505/421/336 506/420/336
f 505/421/336 507/422/337 508/423/337
f 508/423/337 506/420/336 505/421/336
f 512/412/338 509/413/339 510/414/339
f 510/414/339 511/415/338 512/412/338
f 514/416/340 510/414/339 509/413/339
f 509/413/339 513/417/340 514/416/340
f 516/418/341 514/416/340 513/417/340
f 513/417/340 515/419/341 516/418/341
f 518/420/342 516/418/341 515/419/341
f 515/419/341 517/421/342 518/420/342
f 517/421/342 519/422/343 520/423/344
f 520/423/344 518/420/342 517/421/342
f 524/412/345 521/413/346 522/414/346
f 522/414/346 523/415/345 524/412/345
f 526/416/347 522/414/346 521/413/346
f 521/413/346 525/417/347 526/416/347
f 528/418/348 526/416/347 525/417/347
f 525/417/347 527/419/348 528/418/348
f 530/420/349 528/418/348 527/419/348
f 527/419/348 529/421/349 530/420/349
f 529/421/349 531/422/350 532/423/350
f 532/423/350 530/420/349 529/421/349
f 536/412/351 533/413/352 534/414/352
f 534/414/352 535/415/351 536/412/351
f 538/416/353 534/414/352 533/413/352
f 533/413/352 537/417/353 538/416/353
f 540/418/354 538/416/353 537/417/353
f 537/417/353 539/419/354 540/418/354
f 542/420/355 540/418/354 539/419/354
f 539/419/354 541/421/355 542/420/355
f 541/421/355 543/422/356 544/423/356
f 544/423/356 542/420/355 541/421/355
f 548/412/357 545/413/358 546/414/358
f 546/414/358 547/415/357 548/412/357
f 550/416/359 546/414/358 545/413/358
f 545/413/358 549/417/359 550/416/359
f 552/418/360 550/416/359 549/417/359
f 549/417/359 551/419/360 552/418/360
f 554/420/361 552/418/360 551/419/360
f 551/419/360 553/421/361 554/420/361
f 553/421/361 555/422/362 556/423/362
f 556/423/362 554/420/361 553/421/361
f 560/412/363 557/413/364 558/414/364
f 558/414/364 559/415/363 560/412/363
f 562/416/365 558/414/364 557/413/364
f 557/413/364 561/417/365 562/416/365
f 564/418/366 562/416/365 561/417/365
f 561/417/365 563/419/366 564/418/366
f 566/420/367 564/418/366 563/419/366
f 563/419/366 565/421/367 566/420/367
f 565/421/367 567/422/368 568/423/368
f 568/423/368 566/420/367 565/421/367
f 572/412/369 569/413/370 570/414/370
f 570/414/370 571/415/369 572/412/369
f 574/416/371 570/414/370 569/413/370
f 569/413/370 573/417/371 574/416/371
f 576/418/372 574/416/371 573/417/371
f 573/417/371 575/419/372 576/418/372
f 578/420/373 576/418/372 575/419/372
f 575/419/372 577/421/373 578/420/373
f 577/421/373 579/422/374 580/423/374
f 580/423/374 578/420/373 577/421/373
