# Blender 4.0.2
# www.blender.org
mtllib street_lamp.mtl
o Cube_Material.001_0
v 0.452172 -1.292569 0.818631
v 0.452172 2.892885 0.818629
v -0.452172 2.892885 0.818629
v -0.452172 -1.292569 0.818631
v 0.818630 -1.292569 -0.452172
v 0.818630 2.892884 -0.452173
v 0.818630 2.892885 0.452171
v 0.818630 -1.292569 0.452172
v -0.452172 2.892885 0.818629
v 0.452172 2.892885 0.818629
v 0.306075 3.805199 0.554129
v -0.306075 3.805199 0.554129
v -0.818630 -1.292569 0.452172
v -0.818630 2.892885 0.452171
v -0.818630 2.892884 -0.452173
v -0.818630 -1.292569 -0.452172
v -0.452172 -1.292570 -0.818630
v -0.452172 2.892884 -0.818631
v 0.452172 2.892884 -0.818631
v 0.452172 -1.292570 -0.818630
v -0.452172 -1.292569 0.818631
v -0.452172 2.892885 0.818629
v -0.818630 2.892885 0.452171
v -0.818630 -1.292569 0.452172
v -0.452172 2.892884 -0.818631
v -0.452172 -1.292570 -0.818630
v -0.818630 -1.292569 -0.452172
v -0.818630 2.892884 -0.452173
v 0.818630 2.892884 -0.452173
v 0.818630 -1.292569 -0.452172
v 0.452172 -1.292570 -0.818630
v 0.452172 2.892884 -0.818631
v 0.452172 2.892885 0.818629
v 0.452172 -1.292569 0.818631
v 0.818630 -1.292569 0.452172
v 0.818630 2.892885 0.452171
v 0.306075 3.805198 -0.554131
v -0.306075 3.805198 -0.554131
v -0.186980 3.896610 -0.338518
v 0.186980 3.896610 -0.338518
v 0.818630 2.892884 -0.452173
v 0.452172 2.892884 -0.818631
v 0.306075 3.805198 -0.554131
v 0.554130 3.805199 -0.306076
v -0.452172 2.892884 -0.818631
v -0.818630 2.892884 -0.452173
v -0.554130 3.805199 -0.306076
v -0.306075 3.805198 -0.554131
v -0.818630 2.892885 0.452171
v -0.452172 2.892885 0.818629
v -0.306075 3.805199 0.554129
v -0.554130 3.805199 0.306074
v 0.818630 2.892885 0.452171
v 0.818630 2.892884 -0.452173
v 0.554130 3.805199 -0.306076
v 0.554130 3.805199 0.306074
v -0.818630 2.892884 -0.452173
v -0.818630 2.892885 0.452171
v -0.554130 3.805199 0.306074
v -0.554130 3.805199 -0.306076
v 0.452172 2.892884 -0.818631
v -0.452172 2.892884 -0.818631
v -0.306075 3.805198 -0.554131
v 0.306075 3.805198 -0.554131
v 0.452172 2.892885 0.818629
v 0.818630 2.892885 0.452171
v 0.554130 3.805199 0.306074
v 0.306075 3.805199 0.554129
v 0.338516 3.896610 0.186979
v 0.338516 3.896610 -0.186981
v 0.338516 15.382170 -0.186985
v 0.338516 15.382170 0.186976
v -0.306075 3.805199 0.554129
v 0.306075 3.805199 0.554129
v 0.186980 3.896610 0.338515
v -0.186980 3.896610 0.338515
v 0.306075 3.805199 0.554129
v 0.554130 3.805199 0.306074
v 0.338516 3.896610 0.186979
v 0.186980 3.896610 0.338515
v -0.306075 3.805198 -0.554131
v -0.554130 3.805199 -0.306076
v -0.338516 3.896610 -0.186981
v -0.186980 3.896610 -0.338518
v 0.554130 3.805199 0.306074
v 0.554130 3.805199 -0.306076
v 0.338516 3.896610 -0.186981
v 0.338516 3.896610 0.186979
v -0.554130 3.805199 -0.306076
v -0.554130 3.805199 0.306074
v -0.338516 3.896610 0.186979
v -0.338516 3.896610 -0.186981
v 0.554130 3.805199 -0.306076
v 0.306075 3.805198 -0.554131
v 0.186980 3.896610 -0.338518
v 0.338516 3.896610 -0.186981
v -0.554130 3.805199 0.306074
v -0.306075 3.805199 0.554129
v -0.186980 3.896610 0.338515
v -0.338516 3.896610 0.186979
v -0.186980 15.382170 0.338512
v 0.186980 15.382170 0.338512
v 0.454740 16.063311 0.338511
v 0.120225 16.230482 0.338511
v -0.338516 3.896610 -0.186981
v -0.338516 3.896610 0.186979
v -0.338516 15.382170 0.186976
v -0.338516 15.382170 -0.186985
v 0.338516 3.896610 -0.186981
v 0.186980 3.896610 -0.338518
v 0.186980 15.382170 -0.338521
v 0.338516 15.382170 -0.186985
v -0.338516 3.896610 0.186979
v -0.186980 3.896610 0.338515
v -0.186980 15.382170 0.338512
v -0.338516 15.382170 0.186976
v 0.186980 3.896610 -0.338518
v -0.186980 3.896610 -0.338518
v -0.186980 15.382170 -0.338521
v 0.186980 15.382170 -0.338521
v -0.186980 3.896610 0.338515
v 0.186980 3.896610 0.338515
v 0.186980 15.382170 0.338512
v -0.186980 15.382170 0.338512
v 0.186980 3.896610 0.338515
v 0.338516 3.896610 0.186979
v 0.338516 15.382170 0.186976
v 0.186980 15.382170 0.338512
v -0.186980 3.896610 -0.338518
v -0.338516 3.896610 -0.186981
v -0.338516 15.382170 -0.186985
v -0.186980 15.382170 -0.338521
v -0.015328 16.298222 0.186975
v 0.120225 16.230482 0.338511
v 0.634822 16.755453 0.338511
v 0.591440 16.900646 0.186975
v 0.186980 15.382170 0.338512
v 0.338516 15.382170 0.186976
v 0.590292 15.995571 0.186975
v 0.454740 16.063311 0.338511
v -0.186980 15.382170 -0.338521
v -0.338516 15.382170 -0.186985
v -0.015328 16.298222 -0.186985
v 0.120225 16.230482 -0.338521
v 0.338516 15.382170 0.186976
v 0.338516 15.382170 -0.186985
v 0.590292 15.995571 -0.186985
v 0.590292 15.995571 0.186975
v -0.338516 15.382170 -0.186985
v -0.338516 15.382170 0.186976
v -0.015328 16.298222 0.186975
v -0.015328 16.298222 -0.186985
v 0.338516 15.382170 -0.186985
v 0.186980 15.382170 -0.338521
v 0.454740 16.063311 -0.338521
v 0.590292 15.995571 -0.186985
v -0.338516 15.382170 0.186976
v -0.186980 15.382170 0.338512
v 0.120225 16.230482 0.338511
v -0.015328 16.298222 0.186975
v 0.186980 15.382170 -0.338521
v -0.186980 15.382170 -0.338521
v 0.120225 16.230482 -0.338521
v 0.454740 16.063311 -0.338521
v 0.785258 16.251949 0.186975
v 0.785258 16.251949 -0.186985
v 1.931206 16.257498 -0.186985
v 1.931206 16.257498 0.186975
v 0.454740 16.063311 -0.338521
v 0.120225 16.230482 -0.338521
v 0.634822 16.755453 -0.338521
v 0.741876 16.397142 -0.338521
v 0.120225 16.230482 0.338511
v 0.454740 16.063311 0.338511
v 0.741876 16.397142 0.338511
v 0.634822 16.755453 0.338511
v 0.454740 16.063311 0.338511
v 0.590292 15.995571 0.186975
v 0.785258 16.251949 0.186975
v 0.741876 16.397142 0.338511
v 0.120225 16.230482 -0.338521
v -0.015328 16.298222 -0.186985
v 0.591440 16.900646 -0.186985
v 0.634822 16.755453 -0.338521
v 0.590292 15.995571 0.186975
v 0.590292 15.995571 -0.186985
v 0.785258 16.251949 -0.186985
v 0.785258 16.251949 0.186975
v -0.015328 16.298222 -0.186985
v -0.015328 16.298222 0.186975
v 0.591440 16.900646 0.186975
v 0.591440 16.900646 -0.186985
v 0.590292 15.995571 -0.186985
v 0.454740 16.063311 -0.338521
v 0.741876 16.397142 -0.338521
v 0.785258 16.251949 -0.186985
v 1.931206 16.257498 0.186975
v 1.931206 16.257498 -0.186985
v 2.098077 16.195829 -0.444608
v 2.098077 16.195829 0.444597
v 0.591440 16.900646 -0.186985
v 0.591440 16.900646 0.186975
v 1.911887 16.934256 0.186975
v 1.911887 16.934256 -0.186985
v 0.785258 16.251949 -0.186985
v 0.741876 16.397142 -0.338521
v 1.926881 16.408972 -0.338521
v 1.931206 16.257498 -0.186985
v 0.591440 16.900646 0.186975
v 0.634822 16.755453 0.338511
v 1.916212 16.782782 0.338511
v 1.911887 16.934256 0.186975
v 0.741876 16.397142 -0.338521
v 0.634822 16.755453 -0.338521
v 1.916212 16.782782 -0.338522
v 1.926881 16.408972 -0.338521
v 0.634822 16.755453 0.338511
v 0.741876 16.397142 0.338511
v 1.926881 16.408972 0.338511
v 1.916212 16.782782 0.338511
v 0.741876 16.397142 0.338511
v 0.785258 16.251949 0.186975
v 1.931206 16.257498 0.186975
v 1.926881 16.408972 0.338511
v 0.634822 16.755453 -0.338521
v 0.591440 16.900646 -0.186985
v 1.911887 16.934256 -0.186985
v 1.916212 16.782782 -0.338522
v 2.093752 16.374908 0.601882
v 2.098077 16.195829 0.444597
v 3.896198 16.188467 0.444598
v 3.891873 16.367546 0.601882
v 1.911887 16.934256 -0.186985
v 1.911887 16.934256 0.186975
v 2.078758 16.995924 0.332448
v 2.078758 16.995924 -0.332459
v 1.931206 16.257498 -0.186985
v 1.926881 16.408972 -0.338521
v 2.093752 16.374908 -0.601892
v 2.098077 16.195829 -0.444608
v 1.911887 16.934256 0.186975
v 1.916212 16.782782 0.338511
v 2.083083 16.816845 0.601882
v 2.078758 16.995924 0.332448
v 1.926881 16.408972 -0.338521
v 1.916212 16.782782 -0.338522
v 2.083083 16.816845 -0.601892
v 2.093752 16.374908 -0.601892
v 1.916212 16.782782 0.338511
v 1.926881 16.408972 0.338511
v 2.093752 16.374908 0.601882
v 2.083083 16.816845 0.601882
v 1.926881 16.408972 0.338511
v 1.931206 16.257498 0.186975
v 2.098077 16.195829 0.444597
v 2.093752 16.374908 0.601882
v 1.916212 16.782782 -0.338522
v 1.911887 16.934256 -0.186985
v 2.078758 16.995924 -0.332459
v 2.083083 16.816845 -0.601892
v 3.891873 16.367546 -0.601892
v 3.881204 16.809483 -0.601892
v 4.073985 16.800173 -0.383482
v 4.084653 16.386164 -0.383482
v 2.083083 16.816845 -0.601892
v 2.078758 16.995924 -0.332459
v 3.876879 16.988562 -0.332459
v 3.881204 16.809483 -0.601892
v 2.098077 16.195829 0.444597
v 2.098077 16.195829 -0.444608
v 3.896198 16.188467 -0.444607
v 3.896198 16.188467 0.444598
v 2.078758 16.995924 -0.332459
v 2.078758 16.995924 0.332448
v 3.876879 16.988562 0.332448
v 3.876879 16.988562 -0.332459
v 2.098077 16.195829 -0.444608
v 2.093752 16.374908 -0.601892
v 3.891873 16.367546 -0.601892
v 3.896198 16.188467 -0.444607
v 2.078758 16.995924 0.332448
v 2.083083 16.816845 0.601882
v 3.881204 16.809483 0.601882
v 3.876879 16.988562 0.332448
v 2.093752 16.374908 -0.601892
v 2.083083 16.816845 -0.601892
v 3.881204 16.809483 -0.601892
v 3.891873 16.367546 -0.601892
v 2.083083 16.816845 0.601882
v 2.093752 16.374908 0.601882
v 3.891873 16.367546 0.601882
v 3.881204 16.809483 0.601882
v 3.881204 16.809483 0.601882
v 3.891873 16.367546 0.601882
v 4.084653 16.386164 0.383472
v 4.073985 16.800173 0.383472
v 3.891873 16.367546 0.601882
v 3.896198 16.188467 0.444598
v 4.088979 16.218401 0.211809
v 4.084653 16.386164 0.383472
v 3.881204 16.809483 -0.601892
v 3.876879 16.988562 -0.332459
v 4.069660 16.967936 -0.211819
v 4.073985 16.800173 -0.383482
v 3.896198 16.188467 0.444598
v 3.896198 16.188467 -0.444607
v 4.088979 16.218401 -0.211819
v 4.088979 16.218401 0.211809
v 3.876879 16.988562 -0.332459
v 3.876879 16.988562 0.332448
v 4.069660 16.967936 0.211809
v 4.069660 16.967936 -0.211819
v 3.896198 16.188467 -0.444607
v 3.891873 16.367546 -0.601892
v 4.084653 16.386164 -0.383482
v 4.088979 16.218401 -0.211819
v 3.876879 16.988562 0.332448
v 3.881204 16.809483 0.601882
v 4.073985 16.800173 0.383472
v 4.069660 16.967936 0.211809
v -0.818630 -1.292569 -0.452172
v -0.452172 -1.292570 -0.818630
v 0.452172 -1.292570 -0.818630
v 0.818630 -1.292569 -0.452172
v 0.818630 -1.292569 0.452172
v 0.452172 -1.292569 0.818631
v -0.452172 -1.292569 0.818631
v -0.818630 -1.292569 0.452172
v 4.088979 16.218401 -0.211819
v 4.084653 16.386164 -0.383482
v 4.073985 16.800173 -0.383482
v 4.069660 16.967936 -0.211819
v 4.069660 16.967936 0.211809
v 4.073985 16.800173 0.383472
v 4.084653 16.386164 0.383472
v 4.088979 16.218401 0.211809
vn -0.0000 -0.0000 1.0000
vn 1.0000 -0.0000 -0.0000
vn -0.0000 0.2785 0.9604
vn -1.0000 -0.0000 -0.0000
vn -0.0000 -0.0000 -1.0000
vn -0.7071 -0.0000 0.7071
vn -0.7071 -0.0000 -0.7071
vn 0.7071 -0.0000 -0.7071
vn 0.7071 -0.0000 0.7071
vn -0.0000 0.9207 -0.3903
vn 0.6738 0.3033 -0.6738
vn -0.6738 0.3033 -0.6738
vn -0.6738 0.3033 0.6738
vn 0.9604 0.2785 -0.0000
vn -0.9604 0.2785 -0.0000
vn -0.0000 0.2785 -0.9604
vn 0.6738 0.3033 0.6738
vn -0.0000 0.9207 0.3903
vn 0.2548 0.9328 0.2548
vn -0.2548 0.9328 -0.2548
vn 0.3903 0.9207 -0.0000
vn -0.3903 0.9207 -0.0000
vn 0.2548 0.9328 -0.2548
vn -0.2548 0.9328 0.2548
vn -0.5233 0.5205 0.6747
vn 0.6687 -0.2684 0.6934
vn -0.6769 0.2418 -0.6952
vn 0.9251 -0.3797 -0.0000
vn -0.9430 0.3327 -0.0000
vn 0.6687 -0.2684 -0.6934
vn -0.6769 0.2418 0.6952
vn 0.0048 -1.0000 -0.0000
vn 0.5752 -0.4698 0.6697
vn -0.5233 0.5205 -0.6747
vn 0.7960 -0.6053 -0.0000
vn -0.7046 0.7096 -0.0000
vn 0.5752 -0.4698 -0.6697
vn 0.5752 -0.4698 -0.6696
vn -0.3466 -0.9380 -0.0000
vn -0.0254 0.9997 -0.0000
vn 0.0053 -0.7142 -0.6999
vn -0.0167 0.7132 0.7008
vn -0.0167 0.7132 0.7007
vn 0.0053 -0.7142 0.6999
vn -0.0167 0.7132 -0.7008
vn -0.0167 0.7132 -0.7007
vn -0.0027 -0.6599 0.7513
vn -0.3466 0.9380 -0.0000
vn -0.7959 -0.4243 -0.4319
vn -0.7052 0.5505 0.4468
vn -0.8447 -0.0218 -0.5348
vn -0.8445 -0.0221 -0.5351
vn -0.8445 -0.0222 -0.5352
vn -0.8445 -0.0220 0.5351
vn -0.8445 -0.0221 0.5351
vn -0.7959 -0.4243 0.4319
vn -0.7052 0.5505 -0.4468
vn 0.7492 0.0188 -0.6620
vn 0.7494 0.0187 -0.6619
vn 0.7495 0.0185 -0.6617
vn 0.0034 0.8328 -0.5535
vn -0.0041 -1.0000 -0.0000
vn 0.0041 1.0000 -0.0000
vn -0.0027 -0.6599 -0.7513
vn 0.0034 0.8328 0.5535
vn 0.7495 0.0188 0.6617
vn 0.7493 0.0186 0.6620
vn 0.7493 0.0185 0.6620
vn 0.7495 0.0188 0.6618
vn 0.6879 -0.4903 0.5351
vn 0.5136 0.6793 -0.5241
vn 0.1534 -0.9882 -0.0000
vn 0.1064 0.9943 -0.0000
vn 0.6879 -0.4903 -0.5351
vn 0.5136 0.6793 0.5241
vn -0.0000 -1.0000 -0.0000
vn 0.9997 0.0258 -0.0000
vt 0.482314 0.750849
vt 0.482314 1.446628
vt 0.639638 1.446628
vt 0.639638 0.750849
vt 0.354811 0.750726
vt 0.354811 0.054077
vt 0.197487 0.054077
vt 0.197487 0.750726
vt 0.517387 1.683788
vt 0.604565 1.683788
vt 0.639638 0.107490
vt 0.482314 0.107490
vt 0.197487 0.750849
vt 0.197487 1.446628
vt 0.354811 1.446628
vt 0.354811 0.750849
vt 0.703390 1.450955
vt 0.348451 0.968952
vt 0.133735 0.755176
vt 0.133735 1.450955
vt 0.418563 0.750849
vt 0.418563 0.054200
vt 0.133735 0.054200
vt 0.133735 0.750849
vt 0.508702 -0.450687
vt 0.444556 -0.450687
vt 0.457257 -0.394001
vt 0.496443 -0.394001
vt 0.418563 1.450955
vt 0.319738 1.683788
vt 0.355065 1.686186
vt 0.418563 0.074264
vt 0.517387 -0.140911
vt 0.482060 -0.159322
vt 0.703390 0.074264
vt 0.639892 -0.159322
vt 0.604565 -0.140911
vt 0.319738 -0.178941
vt 0.232560 -0.178941
vt 0.232560 1.683788
vt 0.482060 1.686186
vt 0.294266 1.835793
vt 0.363196 1.835793
vt 0.363196 -0.637468
vt 0.294266 -0.637468
vt 0.444556 -0.159322
vt 0.508702 -0.159322
vt 0.496443 -0.216007
vt 0.457257 -0.216007
vt 0.534695 -0.224537
vt 0.512322 -0.255847
vt 0.418563 -0.385473
vt 0.441377 -0.354162
vt 0.534695 -0.385473
vt 0.512322 -0.354162
vt 0.418563 -0.224537
vt 0.441377 -0.255847
vt 0.044296 -1.210946
vt 0.144432 -1.245915
vt 0.190769 -1.518458
vt 0.094970 -1.547922
vt 0.169471 1.835839
vt 0.238402 1.835839
vt 0.238402 -0.448233
vt 0.169471 -0.448233
vt 0.391128 1.835839
vt 0.391128 -0.637422
vt 0.431101 2.973943
vt 0.471961 2.962527
vt 0.003436 -1.199531
vt 0.773414 -3.001159
vt 0.628991 -3.051595
vt 0.012189 2.967622
vt 0.156612 3.018056
vt 0.572097 2.927558
vt 0.266334 1.835839
vt 0.266334 -0.637422
vt 0.225817 -3.051595
vt 0.166887 -3.068058
vt 0.336276 2.951158
vt 0.395205 2.967622
vt 0.055868 -1.562615
vt 0.213218 -1.786799
vt 0.195913 -1.838255
vt 0.184727 -1.262840
vt 0.229306 -1.509274
vt 0.141539 -0.460750
vt 0.169471 -0.657099
vt 0.141539 -0.654824
vt 0.363196 -0.769633
vt 0.294266 -0.769633
vt 0.238402 -0.657099
vt 0.214727 3.042466
vt 0.223441 3.411133
vt 0.279021 3.397887
vt 0.266334 -0.460750
vt 0.266334 -0.654824
vt 0.085274 3.453627
vt 0.438614 0.490907
vt 0.507545 0.490907
vt 0.507545 0.244377
vt 0.438614 0.244377
vt 0.255818 3.798149
vt 0.316404 3.624808
vt 0.255226 -1.666611
vt 0.271966 -1.620664
vt 0.028880 3.474818
vt 0.230860 3.872362
vt 0.363196 -0.824900
vt 0.294266 -0.824900
vt 0.238402 -0.827018
vt 0.169471 -0.827018
vt 0.340548 3.558540
vt 0.847580 0.999150
vt 0.919718 0.999150
vt 0.969414 0.960843
vt 0.797884 0.960843
vt 0.467607 1.835839
vt 0.536537 1.835839
vt 0.533553 1.555840
vt 0.467607 1.551407
vt 0.535477 0.501462
vt 0.535477 0.246581
vt 0.555321 -1.916553
vt 0.548241 -1.973943
vt 0.749219 3.985288
vt 0.773414 3.790824
vt 0.572097 -1.781721
vt 0.410683 0.501462
vt 0.410683 0.246581
vt 0.739007 4.068058
vt 0.767543 0.961836
vt 0.797884 0.548061
vt 0.767543 0.549054
vt 0.563351 1.515177
vt 0.440792 1.515177
vt 0.948949 1.000143
vt 0.999754 0.961836
vt 0.675511 -0.182727
vt 0.653930 -0.209474
vt 0.616422 -0.191002
vt 0.654793 -0.159322
vt 0.419060 -0.349514
vt 0.419060 -0.276058
vt 0.467607 -0.255501
vt 0.467607 -0.342505
vt 0.653930 -0.275481
vt 0.616422 -0.269181
vt 0.818348 1.000143
vt 0.391128 -0.246292
vt 0.417943 -0.220245
vt 0.553465 -0.159322
vt 0.599786 -0.159322
vt 0.598839 -0.216743
vt 0.555445 -0.216743
vt 0.391128 1.515134
vt 0.440792 1.128114
vt 0.391128 1.128072
vt 0.969414 0.548061
vt 0.563351 1.128114
vt 0.999754 0.549054
vt 0.613015 1.515134
vt 0.613015 1.128072
vt 0.578228 -0.032820
vt 0.638101 -0.029413
vt 0.638101 -0.555504
vt 0.578227 -0.558912
vt 0.578228 -0.026005
vt 0.578227 0.500086
vt 0.638101 0.496679
vt 0.599786 -0.475798
vt 0.553465 -0.475798
vt 0.555445 -0.418377
vt 0.598839 -0.418377
vt 0.842789 0.503805
vt 0.809675 0.504798
vt 0.463029 1.086715
vt 0.431387 1.086617
vt 0.924508 0.503805
vt 0.541115 1.086715
vt 0.957623 0.504798
vt 0.572756 1.086617
vt 0.601566 0.501462
vt 0.662249 0.955645
vt 0.662249 0.632434
vt 0.601566 1.086617
vt 0.451811 0.501462
vt 0.451811 1.086617
vt 0.391128 0.632434
vt 0.391128 0.955645
vt 0.537862 -0.373247
vt 0.616422 -0.373247
vt 0.537862 -0.261873
vt 0.616422 -0.261873
s 0
usemtl Material.001
f 1/1/1 2/2/1 3/3/1
f 1/1/1 3/3/1 4/4/1
f 5/5/2 6/6/2 7/7/2
f 5/5/2 7/7/2 8/8/2
f 9/3/3 10/2/3 11/9/3
f 9/3/3 11/9/3 12/10/3
f 13/4/4 14/11/4 15/12/4
f 13/4/4 15/12/4 16/1/4
f 17/13/5 18/14/5 19/15/5
f 17/13/5 19/15/5 20/16/5
f 21/4/6 22/3/6 23/17/6
f 21/4/6 23/17/6 24/18/6
f 25/14/7 26/13/7 27/19/7
f 25/14/7 27/19/7 28/20/7
f 29/6/8 30/5/8 31/21/8
f 29/6/8 31/21/8 32/22/8
f 33/23/9 34/24/9 35/8/9
f 33/23/9 35/8/9 36/7/9
f 37/25/10 38/26/10 39/27/10
f 37/25/10 39/27/10 40/28/10
f 41/29/11 42/15/11 43/30/11
f 41/29/11 43/30/11 44/31/11
f 45/32/12 46/12/12 47/33/12
f 45/32/12 47/33/12 48/34/12
f 49/11/13 50/35/13 51/36/13
f 49/11/13 51/36/13 52/37/13
f 53/7/14 54/6/14 55/38/14
f 53/7/14 55/38/14 56/39/14
f 57/12/15 58/11/15 59/37/15
f 57/12/15 59/37/15 60/33/15
f 61/15/16 62/14/16 63/40/16
f 61/15/16 63/40/16 64/30/16
f 65/2/17 66/29/17 67/41/17
f 65/2/17 67/41/17 68/9/17
f 69/42/2 70/43/2 71/44/2
f 69/42/2 71/44/2 72/45/2
f 73/46/18 74/47/18 75/48/18
f 73/46/18 75/48/18 76/49/18
f 77/47/19 78/50/19 79/51/19
f 77/47/19 79/51/19 80/48/19
f 81/26/20 82/52/20 83/53/20
f 81/26/20 83/53/20 84/27/20
f 85/50/21 86/54/21 87/55/21
f 85/50/21 87/55/21 88/51/21
f 89/52/22 90/56/22 91/57/22
f 89/52/22 91/57/22 92/53/22
f 93/54/23 94/25/23 95/28/23
f 93/54/23 95/28/23 96/55/23
f 97/56/24 98/46/24 99/49/24
f 97/56/24 99/49/24 100/57/24
f 101/58/1 102/59/1 103/60/1
f 101/58/1 103/60/1 104/61/1
f 105/62/4 106/63/4 107/64/4
f 105/62/4 107/64/4 108/65/4
f 109/43/8 110/66/8 111/67/8
f 109/43/8 111/67/8 112/44/8
f 113/68/6 114/69/6 115/58/6
f 113/68/6 115/58/6 116/70/6
f 117/71/5 118/72/5 119/73/5
f 117/71/5 119/73/5 120/74/5
f 121/69/1 122/75/1 123/59/1
f 121/69/1 123/59/1 124/58/1
f 125/76/9 126/42/9 127/45/9
f 125/76/9 127/45/9 128/77/9
f 129/78/7 130/79/7 131/80/7
f 129/78/7 131/80/7 132/81/7
s 1
f 133/82/25 134/61/25 135/83/25
f 133/82/25 135/83/25 136/84/25
f 137/59/26 138/85/26 139/86/26
f 137/59/26 139/86/26 140/60/26
f 141/87/27 142/65/27 143/88/27
f 141/87/27 143/88/27 144/89/27
s 0
f 145/45/28 146/44/28 147/90/28
f 145/45/28 147/90/28 148/91/28
f 149/65/29 150/64/29 151/92/29
f 149/65/29 151/92/29 152/88/29
s 1
f 153/93/30 154/74/30 155/94/30
f 153/93/30 155/94/30 156/95/30
f 157/64/31 158/96/31 159/97/31
f 157/64/31 159/97/31 160/92/31
s 0
f 161/74/5 162/73/5 163/98/5
f 161/74/5 163/98/5 164/94/5
f 165/99/32 166/100/32 167/101/32
f 165/99/32 167/101/32 168/102/32
f 169/94/5 170/98/5 171/103/5
f 169/94/5 171/103/5 172/104/5
f 173/61/1 174/60/1 175/105/1
f 173/61/1 175/105/1 176/83/1
s 1
f 177/60/33 178/86/33 179/106/33
f 177/60/33 179/106/33 180/105/33
f 181/98/34 182/107/34 183/108/34
f 181/98/34 183/108/34 184/103/34
s 0
f 185/91/35 186/90/35 187/109/35
f 185/91/35 187/109/35 188/110/35
f 189/88/36 190/92/36 191/111/36
f 189/88/36 191/111/36 192/112/36
s 1
f 193/95/37 194/94/37 195/104/38
f 193/95/37 195/104/38 196/113/37
s 0
f 197/114/39 198/115/39 199/116/39
f 197/114/39 199/116/39 200/117/39
f 201/118/40 202/119/40 203/120/40
f 201/118/40 203/120/40 204/121/40
s 1
f 205/100/41 206/122/41 207/123/41
f 205/100/41 207/123/41 208/101/41
f 209/84/42 210/83/42 211/124/42
f 209/84/42 211/124/42 212/125/43
s 0
f 213/104/5 214/103/5 215/126/5
f 213/104/5 215/126/5 216/127/5
f 217/83/1 218/105/1 219/128/1
f 217/83/1 219/128/1 220/124/1
s 1
f 221/129/44 222/99/44 223/102/44
f 221/129/44 223/102/44 224/130/44
f 225/103/45 226/108/46 227/131/45
f 225/103/45 227/131/45 228/126/45
s 0
f 229/132/47 230/117/47 231/133/47
f 229/132/47 231/133/47 232/134/47
f 233/121/48 234/120/48 235/135/48
f 233/121/48 235/135/48 236/136/48
s 1
f 237/115/49 238/137/49 239/138/49
f 237/115/49 239/138/49 240/116/49
f 241/139/50 242/140/50 243/141/50
f 241/139/50 243/141/50 244/142/50
f 245/143/51 246/144/52 247/145/53
f 245/143/51 247/145/53 248/146/52
f 249/140/54 250/147/55 251/148/55
f 249/140/54 251/148/55 252/141/55
f 253/149/56 254/114/56 255/117/56
f 253/149/56 255/117/56 256/132/56
f 257/144/57 258/150/57 259/151/57
f 257/144/57 259/151/57 260/145/57
f 261/152/58 262/153/59 263/154/60
f 261/152/58 263/154/60 264/155/59
s 0
f 265/156/61 266/136/61 267/157/61
f 265/156/61 267/157/61 268/158/61
f 269/117/62 270/116/62 271/159/62
f 269/117/62 271/159/62 272/133/62
f 273/136/63 274/135/63 275/160/63
f 273/136/63 275/160/63 276/157/63
f 277/116/64 278/138/64 279/161/64
f 277/116/64 279/161/64 280/159/64
f 281/135/65 282/162/65 283/163/65
f 281/135/65 283/163/65 284/160/65
f 285/164/5 286/165/5 287/166/5
f 285/164/5 287/166/5 288/167/5
f 289/165/1 290/168/1 291/169/1
f 289/165/1 291/169/1 292/170/1
s 1
f 293/171/66 294/172/67 295/173/68
f 293/171/66 295/173/68 296/174/69
f 297/134/70 298/133/70 299/175/70
f 297/134/70 299/175/70 300/176/70
f 301/158/71 302/157/71 303/177/71
f 301/158/71 303/177/71 304/178/71
s 0
f 305/133/72 306/159/72 307/179/72
f 305/133/72 307/179/72 308/175/72
f 309/157/73 310/160/73 311/180/73
f 309/157/73 311/180/73 312/177/73
s 1
f 313/159/74 314/161/74 315/181/74
f 313/159/74 315/181/74 316/179/74
f 317/160/75 318/163/75 319/182/75
f 317/160/75 319/182/75 320/180/75
s 0
f 322/183/76 328/184/76 321/185/76
f 328/184/76 322/183/76 327/186/76
f 327/186/76 322/183/76 323/187/76
f 327/186/76 323/187/76 326/188/76
f 326/188/76 323/187/76 324/189/76
f 326/188/76 324/189/76 325/190/76
f 336/191/77 334/174/77 335/173/77
f 334/174/77 336/191/77 333/192/77
f 333/192/77 336/191/77 329/193/77
f 333/192/77 329/193/77 332/194/77
f 332/194/77 329/193/77 330/155/77
f 332/194/77 330/155/77 331/154/77
